<?xml version="1.0" encoding="UTF-8" standalone="no"?>
<!-- Created with Inkscape (http://www.inkscape.org/) -->

<svg
   xmlns:dc="http://purl.org/dc/elements/1.1/"
   xmlns:cc="http://creativecommons.org/ns#"
   xmlns:rdf="http://www.w3.org/1999/02/22-rdf-syntax-ns#"
   xmlns:svg="http://www.w3.org/2000/svg"
   xmlns="http://www.w3.org/2000/svg"
   xmlns:sodipodi="http://sodipodi.sourceforge.net/DTD/sodipodi-0.dtd"
   xmlns:inkscape="http://www.inkscape.org/namespaces/inkscape"
   width="210mm"
   height="297mm"
   viewBox="0 0 210 297"
   version="1.1"
   id="svg197"
   inkscape:version="0.92.4 (5da689c313, 2019-01-14)"
   sodipodi:docname="cutsphere.svg">
  <defs
     id="defs191" />
  <sodipodi:namedview
     id="base"
     pagecolor="#ffffff"
     bordercolor="#666666"
     borderopacity="1.0"
     inkscape:pageopacity="0.0"
     inkscape:pageshadow="2"
     inkscape:zoom="0.24748737"
     inkscape:cx="331.25774"
     inkscape:cy="220.13271"
     inkscape:document-units="mm"
     inkscape:current-layer="layer1"
     showgrid="false"
     inkscape:window-width="1366"
     inkscape:window-height="705"
     inkscape:window-x="-8"
     inkscape:window-y="-8"
     inkscape:window-maximized="1" />
  <metadata
     id="metadata194">
    <rdf:RDF>
      <cc:Work
         rdf:about="">
        <dc:format>image/svg+xml</dc:format>
        <dc:type
           rdf:resource="http://purl.org/dc/dcmitype/StillImage" />
        <dc:title></dc:title>
      </cc:Work>
    </rdf:RDF>
  </metadata>
  <g
     inkscape:label="Camada 1"
     inkscape:groupmode="layer"
     id="layer1">
    <rect
       style="fill:#e6e6e6;stroke:#000000;stroke-width:2.09495187;stroke-opacity:1"
       id="rect199"
       width="23.077478"
       height="25.652164"
       x="93.915047"
       y="133.25665" />
    <rect
       style="fill:#e6e6e6;stroke:#000000;stroke-width:2.09495187;stroke-opacity:1"
       id="rect203"
       width="23.077496"
       height="25.65222"
       x="116.9925"
       y="133.25665" />
    <rect
       style="fill:#e6e6e6;stroke:#000000;stroke-width:2.09495187;stroke-opacity:1"
       id="rect205"
       width="23.59029"
       height="25.65222"
       x="70.32476"
       y="133.25665" />
    <rect
       style="fill:#e6e6e6;stroke:#000000;stroke-width:2.09495187;stroke-opacity:1"
       id="rect207"
       width="23.077496"
       height="22.923252"
       x="93.915047"
       y="110.33353" />
    <rect
       style="fill:#e6e6e6;stroke:#000000;stroke-width:2.2636075;stroke-opacity:1"
       id="rect209"
       width="22.913958"
       height="24.386477"
       x="93.996819"
       y="158.99579" />
    <rect
       style="fill:#e6e6e6;stroke:#000000;stroke-width:2.09495187;stroke-opacity:1"
       id="rect211"
       width="23.07748"
       height="22.923195"
       x="116.9925"
       y="110.33353" />
    <rect
       style="fill:#e6e6e6;stroke:#000000;stroke-width:2.25201654;stroke-opacity:1"
       id="rect213"
       width="22.925234"
       height="24.125483"
       x="117.06866"
       y="158.98979" />
    <rect
       style="fill:#e6e6e6;stroke:#000000;stroke-width:2.26377106;stroke-opacity:1"
       id="rect215"
       width="23.426678"
       height="24.386322"
       x="70.406555"
       y="158.99591" />
    <rect
       style="fill:#e6e6e6;stroke:#000000;stroke-width:2.09495187;stroke-opacity:1"
       id="rect217"
       width="23.590261"
       height="22.923195"
       x="70.32476"
       y="110.33353"
       ry="0" />
    <rect
       style="fill:#e6e6e6;stroke:#000000;stroke-width:2.09495187;stroke-opacity:1"
       id="rect219"
       width="23.077459"
       height="22.923269"
       x="93.915047"
       y="87.410133" />
    <rect
       style="fill:#e6e6e6;stroke:#000000;stroke-width:2.09495187;stroke-opacity:1"
       id="rect227"
       width="23.07749"
       height="25.10643"
       x="140.06992"
       y="133.80244" />
    <rect
       style="fill:#e6e6e6;stroke:#000000;stroke-width:2.09495187;stroke-opacity:1"
       id="rect229"
       width="22.564672"
       height="25.65222"
       x="47.760117"
       y="133.25665" />
    <rect
       style="fill:#e6e6e6;stroke:#000000;stroke-width:2.09495187;stroke-opacity:1"
       id="rect231"
       width="22.995716"
       height="22.73745"
       x="93.915047"
       y="183.38223" />
    <rect
       style="fill:#e6e6e6;stroke:#000000;stroke-width:2.09495187;stroke-opacity:1"
       id="rect233"
       width="22.564695"
       height="22.923195"
       x="47.760117"
       y="110.33353" />
    <rect
       style="fill:#e6e6e6;stroke:#000000;stroke-width:2.09495187;stroke-opacity:1"
       id="rect235"
       width="23.07749"
       height="22.923252"
       x="140.06992"
       y="110.33353" />
    <rect
       style="fill:#e6e6e6;stroke:#000000;stroke-width:2.09495187;stroke-opacity:1"
       id="rect237"
       width="23.153545"
       height="24.206484"
       x="139.99382"
       y="158.9088" />
    <rect
       style="fill:#e6e6e6;stroke:#000000;stroke-width:2.09495187;stroke-opacity:1"
       id="rect239"
       width="22.646505"
       height="24.473345"
       x="47.760117"
       y="158.90886" />
    <rect
       style="fill:#e6e6e6;stroke:#000000;stroke-width:2.09495187;stroke-opacity:1"
       id="rect241"
       width="23.590261"
       height="22.923321"
       x="70.32476"
       y="87.410133" />
    <rect
       style="fill:#e6e6e6;stroke:#000000;stroke-width:2.09495187;stroke-opacity:1"
       id="rect243"
       width="23.07748"
       height="22.923321"
       x="116.9925"
       y="87.410133" />
    <rect
       style="fill:#e6e6e6;stroke:#000000;stroke-width:2.09495187;stroke-opacity:1"
       id="rect245"
       width="23.083099"
       height="23.004333"
       x="116.91079"
       y="183.11533" />
    <rect
       style="fill:#e6e6e6;stroke:#000000;stroke-width:2.09495187;stroke-opacity:1"
       id="rect247"
       width="23.508455"
       height="22.737421"
       x="70.406555"
       y="183.38223" />
    <rect
       style="fill:#e6e6e6;stroke:#000000;stroke-width:2.09495187;stroke-opacity:1"
       id="rect249"
       width="23.077496"
       height="21.285789"
       x="93.915047"
       y="66.124397" />
    <rect
       style="fill:#e6e6e6;stroke:#000000;stroke-width:2.09495187;stroke-opacity:1"
       id="rect253"
       width="23.077541"
       height="25.10643"
       x="163.14734"
       y="133.80244" />
    <rect
       style="fill:#e6e6e6;stroke:#000000;stroke-width:2.09495187;stroke-opacity:1"
       id="rect255"
       width="23.077496"
       height="22.104553"
       x="93.915047"
       y="206.1196" />
    <rect
       style="fill:#e6e6e6;stroke:#000000;stroke-width:2.09495187;stroke-opacity:1"
       id="rect257"
       width="22.051786"
       height="25.106489"
       x="25.708344"
       y="133.80244" />
    <rect
       style="fill:#e6e6e6;stroke:#000000;stroke-width:2.09495187;stroke-opacity:1"
       id="rect259"
       width="22.564695"
       height="22.923321"
       x="47.760117"
       y="87.410133" />
    <rect
       style="fill:#e6e6e6;stroke:#000000;stroke-width:2.09495187;stroke-opacity:1"
       id="rect261"
       width="23.07749"
       height="22.923269"
       x="140.06992"
       y="87.410133" />
    <rect
       style="fill:#e6e6e6;stroke:#000000;stroke-width:2.09495187;stroke-opacity:1"
       id="rect263"
       width="23.153545"
       height="23.004396"
       x="139.99382"
       y="183.11523" />
    <rect
       style="fill:#e6e6e6;stroke:#000000;stroke-width:2.09495187;stroke-opacity:1"
       id="rect265"
       width="22.646505"
       height="22.737484"
       x="47.760117"
       y="183.38222" />
    <rect
       style="fill:#e6e6e6;stroke:#000000;stroke-width:2.09495187;stroke-opacity:1"
       id="rect267"
       width="23.077532"
       height="24.206427"
       x="163.14734"
       y="158.9088" />
    <rect
       style="fill:#e6e6e6;stroke:#000000;stroke-width:2.09495187;stroke-opacity:1"
       id="rect269"
       width="22.051805"
       height="24.47328"
       x="25.708344"
       y="158.90886" />
    <rect
       style="fill:#e6e6e6;stroke:#000000;stroke-width:2.09495187;stroke-opacity:1"
       id="rect271"
       width="23.590261"
       height="21.285805"
       x="70.32476"
       y="66.124397" />
    <rect
       style="fill:#e6e6e6;stroke:#000000;stroke-width:2.09495187;stroke-opacity:1"
       id="rect273"
       width="23.07748"
       height="21.285805"
       x="116.9925"
       y="66.124397" />
    <rect
       style="fill:#e6e6e6;stroke:#000000;stroke-width:2.09495187;stroke-opacity:1"
       id="rect275"
       width="23.077532"
       height="23.468933"
       x="163.14734"
       y="110.33353" />
    <rect
       style="fill:#e6e6e6;stroke:#000000;stroke-width:2.09495187;stroke-opacity:1"
       id="rect277"
       width="23.001354"
       height="22.1045"
       x="116.9925"
       y="206.1196" />
    <rect
       style="fill:#e6e6e6;stroke:#000000;stroke-width:2.09495187;stroke-opacity:1"
       id="rect279"
       width="23.508455"
       height="22.1045"
       x="70.406555"
       y="206.1196" />
    <rect
       style="fill:#e6e6e6;stroke:#000000;stroke-width:2.09495187;stroke-opacity:1"
       id="rect281"
       width="22.051805"
       height="23.468933"
       x="25.708344"
       y="110.33353" />
    <rect
       style="fill:#e6e6e6;stroke:#000000;stroke-width:2.09495187;stroke-opacity:1"
       id="rect283"
       width="23.077496"
       height="22.377409"
       x="93.915047"
       y="43.746956" />
    <rect
       style="fill:#e6e6e6;stroke:#000000;stroke-width:2.09495187;stroke-opacity:1"
       id="rect285"
       width="22.564653"
       height="25.106396"
       x="186.22498"
       y="133.80244" />
    <rect
       style="fill:#e6e6e6;stroke:#000000;stroke-width:2.09495187;stroke-opacity:1"
       id="rect287"
       width="23.077459"
       height="21.285898"
       x="93.915047"
       y="228.22424" />
    <rect
       style="fill:#e6e6e6;stroke:#000000;stroke-width:2.09495187;stroke-opacity:1"
       id="rect292"
       width="23.077463"
       height="25.106396"
       x="2.6308012"
       y="133.80244" />
    <rect
       style="fill:#e6e6e6;stroke:#000000;stroke-width:2.09495187;stroke-opacity:1"
       id="rect294"
       width="22.051805"
       height="22.923321"
       x="25.708344"
       y="87.410133" />
    <rect
       style="fill:#e6e6e6;stroke:#000000;stroke-width:2.09495187;stroke-opacity:1"
       id="rect296"
       width="22.051805"
       height="22.737541"
       x="25.708344"
       y="183.38211" />
    <rect
       style="fill:#e6e6e6;stroke:#000000;stroke-width:2.09495187;stroke-opacity:1"
       id="rect298"
       width="22.564695"
       height="21.285805"
       x="47.760117"
       y="66.124397" />
    <rect
       style="fill:#e6e6e6;stroke:#000000;stroke-width:2.09495187;stroke-opacity:1"
       id="rect300"
       width="23.077532"
       height="22.923321"
       x="163.14734"
       y="87.410133" />
    <rect
       style="fill:#e6e6e6;stroke:#000000;stroke-width:2.09495187;stroke-opacity:1"
       id="rect302"
       width="23.077415"
       height="21.285805"
       x="140.06992"
       y="66.124397" />
    <rect
       style="fill:#e6e6e6;stroke:#000000;stroke-width:2.09495187;stroke-opacity:1"
       id="rect304"
       width="23.077532"
       height="23.004461"
       x="163.14734"
       y="183.1151" />
    <rect
       style="fill:#e6e6e6;stroke:#000000;stroke-width:2.09495187;stroke-opacity:1"
       id="rect306"
       width="22.646505"
       height="22.104433"
       x="47.760117"
       y="206.1196" />
    <g
       id="g311"
       transform="matrix(7.6751407,0,0,8.1683957,-535.84362,-547.86363)"
       style="fill:#e6e6e6">
      <rect
         y="92.304939"
         x="88.055389"
         height="2.7060928"
         width="3.0166931"
         id="rect308"
         style="fill:#e6e6e6;stroke:#000000;stroke-width:0.26458332;stroke-opacity:1;image-rendering:auto" />
    </g>
    <path
       style="fill:#e6e6e6;stroke:#000000;stroke-width:0.50423449;stroke-opacity:1"
       d="M 3.6978867,146.45358 V 135.14562 H 13.950755 24.203623 v 11.30796 11.30797 H 13.950755 3.6978867 Z"
       id="path4360"
       inkscape:connector-curvature="0" />
    <path
       style="fill:#e6e6e6;stroke:#000000;stroke-width:0.50423449;stroke-opacity:1"
       d="m 26.901747,146.45358 v -11.30796 h 9.713241 9.713249 v 11.30796 11.30797 h -9.713249 -9.713241 z"
       id="path4362"
       inkscape:connector-curvature="0" />
    <path
       style="fill:#e6e6e6;stroke:#000000;stroke-width:0.50423449;stroke-opacity:1"
       d="m 26.901747,122.18857 v -10.60121 h 9.713241 9.713249 v 10.60121 10.60122 h -9.713249 -9.713241 z"
       id="path4364"
       inkscape:connector-curvature="0" />
    <path
       style="fill:#e6e6e6;stroke:#000000;stroke-width:0.50423449;stroke-opacity:1"
       d="M 26.901747,98.865878 V 88.500257 h 9.713241 9.713249 v 10.365621 10.365642 h -9.713249 -9.713241 z"
       id="path4366"
       inkscape:connector-curvature="0" />
    <path
       style="fill:#e6e6e6;stroke:#000000;stroke-width:0.50423449;stroke-opacity:1"
       d="M 49.026351,98.865878 V 88.500257 h 9.983066 9.983054 v 10.365621 10.365642 h -9.983054 -9.983066 z"
       id="path4368"
       inkscape:connector-curvature="0" />
    <path
       style="fill:#e6e6e6;stroke:#000000;stroke-width:0.50423449;stroke-opacity:1"
       d="m 49.026351,121.953 v -10.36564 h 9.983066 9.983054 v 10.36564 10.36563 h -9.983054 -9.983066 z"
       id="path4370"
       inkscape:connector-curvature="0" />
    <path
       style="fill:#e6e6e6;stroke:#000000;stroke-width:0.50423449;stroke-opacity:1"
       d="M 49.026351,76.721124 V 67.29782 h 9.983066 9.983054 v 9.423304 9.423306 h -9.983054 -9.983066 z"
       id="path4372"
       inkscape:connector-curvature="0" />
    <path
       style="fill:#e6e6e6;stroke:#000000;stroke-width:0.50423449;stroke-opacity:1"
       d="M 71.69059,76.721124 V 67.29782 h 10.522675 10.52269 v 9.423304 9.423306 H 82.213265 71.69059 Z"
       id="path4374"
       inkscape:connector-curvature="0" />
    <path
       style="fill:#e6e6e6;stroke:#000000;stroke-width:0.50423449;stroke-opacity:1"
       d="M 71.69059,98.865878 V 88.500257 h 10.522675 10.52269 V 98.865878 109.23152 H 82.213265 71.69059 Z"
       id="path4376"
       inkscape:connector-curvature="0" />
    <path
       style="fill:#e6e6e6;stroke:#000000;stroke-width:0.50423449;stroke-opacity:1"
       d="m 71.69059,121.953 v -10.36564 h 10.522675 10.52269 V 121.953 132.31863 H 82.213265 71.69059 Z"
       id="path4378"
       inkscape:connector-curvature="0" />
    <path
       style="fill:#e6e6e6;stroke:#000000;stroke-width:0.50423449;stroke-opacity:1"
       d="m 118.0983,121.953 v -10.36564 h 10.25288 10.25287 V 121.953 132.31863 H 128.35118 118.0983 Z"
       id="path4380"
       inkscape:connector-curvature="0" />
    <path
       style="fill:#e6e6e6;stroke:#000000;stroke-width:0.50423449;stroke-opacity:1"
       d="M 95.434062,98.865878 V 88.500257 h 9.983088 9.98305 v 10.365621 10.365642 h -9.98305 -9.983088 z"
       id="path4382"
       inkscape:connector-curvature="0" />
    <path
       style="fill:#e6e6e6;stroke:#000000;stroke-width:0.50423449;stroke-opacity:1"
       d="m 95.434062,121.953 v -10.36564 h 9.983088 9.98305 v 10.36564 10.36563 h -9.98305 -9.983088 z"
       id="path4384"
       inkscape:connector-curvature="0" />
    <path
       style="fill:#e6e6e6;stroke:#000000;stroke-width:0.50423449;stroke-opacity:1"
       d="M 95.434062,76.721124 V 67.29782 h 9.983088 9.98305 v 9.423304 9.423306 h -9.98305 -9.983088 z"
       id="path4386"
       inkscape:connector-curvature="0" />
    <path
       style="fill:#e6e6e6;stroke:#000000;stroke-width:0.50423449;stroke-opacity:1"
       d="m 95.434062,54.801544 v -10.14045 l 10.117978,0.12819 10.11796,0.128185 0.14566,10.012263 0.14564,10.012261 H 105.69768 95.434073 Z"
       id="path4388"
       inkscape:connector-curvature="0" />
    <path
       style="fill:#e6e6e6;stroke:#000000;stroke-width:0.50423449;stroke-opacity:1"
       d="M 118.0983,76.721124 V 67.29782 h 10.25288 10.25287 v 9.423304 9.423306 H 128.35118 118.0983 Z"
       id="path4390"
       inkscape:connector-curvature="0" />
    <path
       style="fill:#e6e6e6;stroke:#000000;stroke-width:0.50423449;stroke-opacity:1"
       d="M 118.0983,98.865878 V 88.500257 h 10.25288 10.25287 V 98.865878 109.23152 H 128.35118 118.0983 Z"
       id="path4392"
       inkscape:connector-curvature="0" />
    <path
       style="fill:#e6e6e6;stroke:#000000;stroke-width:0.50423449;stroke-opacity:1"
       d="M 141.30217,98.865878 V 88.500257 h 10.25288 10.25287 v 10.365621 10.365642 h -10.25287 -10.25288 z"
       id="path4394"
       inkscape:connector-curvature="0" />
    <path
       style="fill:#e6e6e6;stroke:#000000;stroke-width:0.50423449;stroke-opacity:1"
       d="M 141.30217,76.721124 V 67.29782 h 10.25288 10.25287 v 9.423304 9.423306 h -10.25287 -10.25288 z"
       id="path4396"
       inkscape:connector-curvature="0" />
    <path
       style="fill:#e6e6e6;stroke:#000000;stroke-width:0.50423449;stroke-opacity:1"
       d="M 164.50605,98.865878 V 88.500257 h 10.25287 10.25285 v 10.365621 10.365642 h -10.25285 -10.25287 z"
       id="path4398"
       inkscape:connector-curvature="0" />
    <path
       style="fill:#e6e6e6;stroke:#000000;stroke-width:0.50423449;stroke-opacity:1"
       d="m 164.50605,122.18857 v -10.60121 h 10.25287 10.25285 v 10.60121 10.60122 h -10.25285 -10.25287 z"
       id="path4400"
       inkscape:connector-curvature="0" />
    <path
       style="fill:#e6e6e6;stroke:#000000;stroke-width:0.50423449;stroke-opacity:1"
       d="m 141.30217,121.953 v -10.36564 h 10.25288 10.25287 v 10.36564 10.36563 h -10.25287 -10.25288 z"
       id="path4402"
       inkscape:connector-curvature="0" />
    <path
       style="fill:#e6e6e6;stroke:#000000;stroke-width:0.50423449;stroke-opacity:1"
       d="m 141.30217,146.45358 v -11.30796 h 10.25288 10.25287 v 11.30796 11.30797 h -10.25287 -10.25288 z"
       id="path4404"
       inkscape:connector-curvature="0" />
    <path
       style="fill:#e6e6e6;stroke:#000000;stroke-width:0.50423449;stroke-opacity:1"
       d="m 164.50605,146.45358 v -11.30796 h 10.25287 10.25285 v 11.30796 11.30797 h -10.25285 -10.25287 z"
       id="path4406"
       inkscape:connector-curvature="0" />
    <path
       style="fill:#e6e6e6;stroke:#000000;stroke-width:0.50423449;stroke-opacity:1"
       d="m 187.7099,146.45358 v -11.30796 h 9.98305 9.98307 v 11.30796 11.30797 h -9.98307 -9.98305 z"
       id="path4408"
       inkscape:connector-curvature="0" />
    <path
       style="fill:#e6e6e6;stroke:#000000;stroke-width:0.50423449;stroke-opacity:1"
       d="m 141.30217,170.95417 v -10.83681 h 10.25288 10.25287 v 10.83681 10.83681 h -10.25287 -10.25288 z"
       id="path4410"
       inkscape:connector-curvature="0" />
    <path
       style="fill:#e6e6e6;stroke:#000000;stroke-width:0.50423449;stroke-opacity:1"
       d="m 164.50605,170.95417 v -10.83681 h 10.25287 10.25285 v 10.83681 10.83681 h -10.25285 -10.25287 z"
       id="path4412"
       inkscape:connector-curvature="0" />
    <path
       style="fill:#e6e6e6;stroke:#000000;stroke-width:0.50423449;stroke-opacity:1"
       d="m 164.50605,194.51243 v -10.36562 h 10.25287 10.25285 v 10.36562 10.36564 h -10.25285 -10.25287 z"
       id="path4414"
       inkscape:connector-curvature="0" />
    <path
       style="fill:#e6e6e6;stroke:#000000;stroke-width:0.50423449;stroke-opacity:1"
       d="m 141.30217,194.51243 v -10.36562 h 10.25288 10.25287 v 10.36562 10.36564 h -10.25287 -10.25288 z"
       id="path4416"
       inkscape:connector-curvature="0" />
    <path
       style="fill:#e6e6e6;stroke:#000000;stroke-width:0.50423449;stroke-opacity:1"
       d="m 118.0983,194.51243 v -10.36562 h 10.25288 10.25287 v 10.36562 10.36564 H 128.35118 118.0983 Z"
       id="path4418"
       inkscape:connector-curvature="0" />
    <path
       style="fill:#e6e6e6;stroke:#000000;stroke-width:0.50423449;stroke-opacity:1"
       d="m 118.63794,170.95417 v -10.83681 h 9.98305 9.98306 v 10.83681 10.83681 h -9.98306 -9.98305 z"
       id="path4420"
       inkscape:connector-curvature="0" />
    <path
       style="fill:#e6e6e6;stroke:#000000;stroke-width:0.50423449;stroke-opacity:1"
       d="m 118.2238,146.10022 0.14433,-11.66135 10.11797,-0.12819 10.11795,-0.12819 v 11.78954 11.78952 h -10.2623 -10.26227 z"
       id="path4422"
       inkscape:connector-curvature="0" />
    <path
       style="fill:#e6e6e6;stroke:#000000;stroke-width:0.50423449;stroke-opacity:1"
       d="m 95.434062,145.98241 v -11.77912 h 9.983088 9.98305 v 11.77912 11.77914 h -9.98305 -9.983088 z"
       id="path4424"
       inkscape:connector-curvature="0" />
    <path
       style="fill:#e6e6e6;stroke:#000000;stroke-width:0.50423449;stroke-opacity:1"
       d="m 95.434062,171.18976 v -11.0724 h 9.983088 9.98305 v 11.0724 11.07237 h -9.98305 -9.983088 z"
       id="path4426"
       inkscape:connector-curvature="0" />
    <path
       style="fill:#e6e6e6;stroke:#000000;stroke-width:0.50423449;stroke-opacity:1"
       d="m 71.69059,145.98241 v -11.77912 h 10.522675 10.52269 v 11.77912 11.77914 H 82.213265 71.69059 Z"
       id="path4430"
       inkscape:connector-curvature="0" />
    <path
       style="fill:#e6e6e6;stroke:#000000;stroke-width:0.50423449;stroke-opacity:1"
       d="m 71.69059,194.74803 v -10.13007 h 10.522675 10.52269 v 10.13007 10.13004 H 82.213265 71.69059 Z"
       id="path4432"
       inkscape:connector-curvature="0" />
    <path
       style="fill:#e6e6e6;stroke:#000000;stroke-width:0.50423449;stroke-opacity:1"
       d="m 49.026351,171.18976 v -11.0724 h 9.983066 9.983054 v 11.0724 11.07237 h -9.983054 -9.983066 z"
       id="path4434"
       inkscape:connector-curvature="0" />
    <path
       style="fill:#e6e6e6;stroke:#000000;stroke-width:0.50423449;stroke-opacity:1"
       d="m 49.026351,145.98241 v -11.77912 h 9.983066 9.983054 v 11.77912 11.77914 h -9.983054 -9.983066 z"
       id="path4436"
       inkscape:connector-curvature="0" />
    <path
       style="fill:#e6e6e6;stroke:#000000;stroke-width:0.50423449;stroke-opacity:1"
       d="m 71.69059,171.18976 v -11.0724 h 10.252867 10.252869 v 11.0724 11.07237 H 81.943457 71.69059 Z"
       id="path4438"
       inkscape:connector-curvature="0" />
    <path
       style="fill:#e6e6e6;stroke:#000000;stroke-width:0.50423449;stroke-opacity:1"
       d="m 46.560951,171.18976 c 2.66e-4,-6.21938 0.07716,-8.69851 0.170629,-5.50918 0.09353,3.18934 0.09323,8.27792 -5.24e-4,11.30798 -0.09382,3.03005 -0.170342,0.42058 -0.169991,-5.7988 z"
       id="path4440"
       inkscape:connector-curvature="0" />
    <path
       style="fill:#e6e6e6;stroke:#000000;stroke-width:0.50423449;stroke-opacity:1"
       d="m 26.901747,194.74803 v -10.13007 h 9.713241 9.713249 v 10.13007 10.13004 h -9.713249 -9.713241 z"
       id="path4442"
       inkscape:connector-curvature="0" />
    <path
       style="fill:#e6e6e6;stroke:#000000;stroke-width:0.50423449;stroke-opacity:1"
       d="m 26.901747,171.18976 v -11.0724 h 9.713241 9.713249 v 11.0724 11.07237 h -9.713249 -9.713241 z"
       id="path4444"
       inkscape:connector-curvature="0" />
    <path
       style="fill:#e6e6e6;stroke:#000000;stroke-width:0.50423449;stroke-opacity:1"
       d="m 49.026351,194.74803 v -10.13007 h 9.983066 9.983054 v 10.13007 10.13004 h -9.983054 -9.983066 z"
       id="path4446"
       inkscape:connector-curvature="0" />
    <path
       style="fill:#e6e6e6;stroke:#000000;stroke-width:0.50423449;stroke-opacity:1"
       d="m 49.026351,217.12837 v -9.89447 h 9.983066 9.983054 v 9.89447 9.89448 h -9.983054 -9.983066 z"
       id="path4448"
       inkscape:connector-curvature="0" />
    <path
       style="fill:#e6e6e6;stroke:#000000;stroke-width:0.50423449;stroke-opacity:1"
       d="m 71.69059,217.12837 v -9.89447 h 10.522675 10.52269 v 9.89447 9.89448 H 82.213265 71.69059 Z"
       id="path4450"
       inkscape:connector-curvature="0" />
    <path
       style="fill:#e6e6e6;stroke:#000000;stroke-width:0.50423449;stroke-opacity:1"
       d="m 95.434062,217.12837 v -9.89447 h 9.983088 9.98305 v 9.89447 9.89448 h -9.98305 -9.983088 z"
       id="path4452"
       inkscape:connector-curvature="0" />
    <path
       style="fill:#e6e6e6;stroke:#000000;stroke-width:0.50423449;stroke-opacity:1"
       d="m 95.434062,194.74803 v -10.13007 h 9.983088 9.98305 v 10.13007 10.13004 h -9.98305 -9.983088 z"
       id="path4454"
       inkscape:connector-curvature="0" />
    <path
       style="fill:#e6e6e6;stroke:#000000;stroke-width:0.50423449;stroke-opacity:1"
       d="m 95.434062,238.80198 v -9.4233 h 10.252888 10.25286 v 9.4233 9.4233 H 105.68695 95.434062 Z"
       id="path4456"
       inkscape:connector-curvature="0" />
    <path
       style="fill:#e6e6e6;stroke:#000000;stroke-width:0.50423449;stroke-opacity:1"
       d="m 118.0983,217.12837 v -9.89447 h 10.25288 10.25287 v 9.89447 9.89448 H 128.35118 118.0983 Z"
       id="path4458"
       inkscape:connector-curvature="0" />
    <path
       style="fill:#e6e6e6;stroke:#000000;stroke-width:0.50423449;stroke-opacity:1"
       d="m 141.30217,217.12837 v -9.89447 h 10.25288 10.25287 v 9.89447 9.89448 h -10.25287 -10.25288 z"
       id="path4460"
       inkscape:connector-curvature="0" />
  </g>
</svg>
