<?xml version="1.0" encoding="UTF-8" standalone="no"?>
<!-- Created with Inkscape (http://www.inkscape.org/) -->

<svg
   xmlns:dc="http://purl.org/dc/elements/1.1/"
   xmlns:cc="http://creativecommons.org/ns#"
   xmlns:rdf="http://www.w3.org/1999/02/22-rdf-syntax-ns#"
   xmlns:svg="http://www.w3.org/2000/svg"
   xmlns="http://www.w3.org/2000/svg"
   xmlns:sodipodi="http://sodipodi.sourceforge.net/DTD/sodipodi-0.dtd"
   xmlns:inkscape="http://www.inkscape.org/namespaces/inkscape"
   width="210mm"
   height="297mm"
   viewBox="0 0 210 297"
   version="1.1"
   id="svg8"
   inkscape:version="0.92.4 (5da689c313, 2019-01-14)"
   sodipodi:docname="new.svg">
  <defs
     id="defs2" />
  <sodipodi:namedview
     id="base"
     pagecolor="#ffffff"
     bordercolor="#666666"
     borderopacity="1.0"
     inkscape:pageopacity="0.0"
     inkscape:pageshadow="2"
     inkscape:zoom="0.24748737"
     inkscape:cx="-309.30229"
     inkscape:cy="821.90368"
     inkscape:document-units="mm"
     inkscape:current-layer="layer1"
     showgrid="false"
     inkscape:window-width="1366"
     inkscape:window-height="705"
     inkscape:window-x="-8"
     inkscape:window-y="-8"
     inkscape:window-maximized="1" />
  <metadata
     id="metadata5">
    <rdf:RDF>
      <cc:Work
         rdf:about="">
        <dc:format>image/svg+xml</dc:format>
        <dc:type
           rdf:resource="http://purl.org/dc/dcmitype/StillImage" />
        <dc:title></dc:title>
      </cc:Work>
    </rdf:RDF>
  </metadata>
  <g
     inkscape:label="Camada 1"
     inkscape:groupmode="layer"
     id="layer1">
    <path
       id="rect10"
       style="fill:#ffffff;stroke:#000000;stroke-width:0.89679879;stroke-opacity:1"
       d="m 130.42352,4.7704061 -0.19254,0.00188 c -0.32309,0.1279703 -0.6491,0.2368558 -0.96108,0.2633794 -0.0598,0.2536978 -0.12026,0.2167499 -0.18411,0.00952 -0.092,-0.00188 -0.18237,-0.00188 -0.27024,-0.020022 -0.23284,-0.047147 -0.45656,-0.1407368 -0.67396,-0.2470289 L 5.66725,4.7800196 V 294.40077 H 205.80836 V 78.297093 c -0.0682,-0.04332 -0.11453,-0.05928 -0.20778,-0.14365 -0.0473,-0.04244 -0.0777,-0.101198 -0.11643,-0.152591 -0.007,-0.03175 0.001,-0.07086 -0.0202,-0.09086 -1.13585,-1.030755 0.19326,0.349648 -0.76008,-0.672058 -1.5e-4,-0.14382 0.0123,-0.01403 -0.18074,-0.20156 -0.0815,-0.07841 -0.16472,-0.157153 -0.2314,-0.250656 -0.0229,-0.03175 0.12204,0.08367 0.0945,0.05823 -0.46244,-0.432906 0.0498,0.151541 -0.44929,-0.457725 -0.0917,-0.09066 -0.19012,-0.195618 -0.18749,-0.234309 7.8e-4,-0.01222 0.0213,0.0105 0.0337,0.01578 -0.14328,-0.113125 -0.4651,-0.356437 -0.48138,-0.368731 -0.0417,-0.03701 -0.0854,-0.07173 -0.12833,-0.10717 -0.0393,-0.01403 -0.0815,-0.02262 -0.11643,-0.04718 -0.17151,-0.121366 -0.31877,-0.280122 -0.47799,-0.419577 -0.0752,-0.05858 -0.15508,-0.11015 -0.22465,-0.176236 -0.12682,-0.120495 -0.23233,-0.267791 -0.36315,-0.383253 -0.0777,-0.06893 -0.19861,-0.05595 -0.27869,-0.121718 -0.44269,-0.363188 -0.26744,-0.512677 -0.43071,-0.359646 -0.37666,-0.208788 -0.64611,-0.595181 -0.90028,-0.948144 -0.0654,-0.09068 -0.11834,-0.194197 -0.1993,-0.268827 -0.0571,-0.05262 -0.13598,-0.06805 -0.20438,-0.101722 -0.13009,-0.108569 -0.26608,-0.209139 -0.39017,-0.325127 -0.61853,-0.577749 -0.26425,-0.331091 -0.87158,-0.857325 -0.53816,-0.466567 -0.33095,-0.218647 -0.85804,-0.693841 -0.15687,-0.141719 -0.30405,-0.295329 -0.45604,-0.443204 -0.16437,-0.154346 -0.32446,-0.314376 -0.49321,-0.463162 -0.40215,-0.354243 -0.8431,-0.659814 -1.2195,-1.048049 -0.007,-0.0087 -0.0222,-0.02158 -0.0322,-0.03087 -0.0551,0.08226 -0.2624,-0.342895 -0.39862,-0.461357 -0.0484,-0.04208 0.15221,0.210982 0.10643,0.165222 -0.13702,-0.136457 -0.38704,-0.507066 -0.16383,-0.183375 -0.1118,-0.07981 -0.26739,-0.1842 -0.35301,-0.281542 -0.11574,-0.131545 -0.20539,-0.286875 -0.31585,-0.423227 -0.20724,-0.255163 -0.47252,-0.471878 -0.70774,-0.695664 -0.38536,-0.176831 -0.57173,-0.493822 -0.86309,-0.791921 -0.0261,-0.02473 -0.0675,-0.02105 -0.098,-0.04174 -0.18826,-0.120846 -0.36243,-0.269106 -0.53711,-0.410492 -0.1372,-0.32339 -0.43552,-0.496101 -0.64017,-0.751966 -0.0555,-0.06946 -0.10284,-0.14663 -0.15202,-0.221609 0.0101,0.01842 0.0326,0.04893 0.0186,0.04718 -0.0958,-0.114359 -0.19124,-0.229031 -0.28714,-0.343298 0.0161,0.01842 0.028,0.03771 0.0161,0.05455 -0.0261,0.03175 -0.0696,-0.04472 -0.0963,-0.07611 -0.0709,-0.08349 -0.13406,-0.173114 -0.19931,-0.261582 -0.0143,-0.0105 -0.0304,-0.01842 -0.044,-0.02893 -0.0143,-0.01222 -0.0193,-0.03436 -0.0238,-0.05087 -0.17545,-0.131897 -0.32263,-0.275861 -0.42901,-0.474055 -0.0827,-0.06928 -0.16455,-0.139264 -0.24154,-0.219788 -0.0529,-0.05508 -0.0896,-0.125408 -0.14185,-0.181742 -0.11233,-0.120677 -0.11506,-0.11471 -0.15704,-0.152592 h -0.001 c -0.006,0.04998 -0.0844,-0.06456 -0.12668,-0.09647 -0.0906,-0.116114 -0.1783,-0.235308 -0.27195,-0.348735 -0.007,-0.0087 -0.0143,-0.01403 -0.022,-0.02157 0.006,0.01049 0.0359,0.04701 0.0203,0.04718 -0.094,0.0017 -0.24476,-0.243219 -0.35131,-0.434101 -0.0343,-0.03104 -0.0682,-0.06208 -0.0996,-0.09613 -0.0556,0.0017 -0.1163,-0.06367 -0.16223,-0.10909 -0.0859,-0.08437 -0.0745,-0.08489 -0.11985,-0.132597 -0.0325,-0.02034 -0.0654,-0.03947 -0.0963,-0.06174 -0.0709,-0.05157 -0.13255,-0.115062 -0.19931,-0.172589 -0.22749,-0.182145 -0.5023,-0.414052 -0.70097,-0.62484 -0.1431,-0.151716 -0.26626,-0.323638 -0.402,-0.483157 -0.13971,-0.16452 -0.18456,-0.199915 -0.27024,-0.299696 -0.0225,-0.01842 -0.0143,-0.01403 -0.0421,-0.03455 -0.0989,-0.08559 -0.19824,-0.171184 -0.29729,-0.256128 -0.085,-0.08384 -0.16614,-0.171886 -0.25503,-0.250654 -0.10519,-0.09313 -0.27353,-0.173465 -0.36822,-0.276089 -0.14167,-0.153819 -0.24488,-0.31599 -0.28039,-0.370554 -0.0546,-0.240693 -0.33485,-0.312273 -0.47969,-0.477686 -0.0926,-0.105771 -0.16919,-0.226715 -0.25842,-0.336019 -0.0261,-0.03175 0.0443,0.06612 0.0659,0.0998 -0.0161,-0.01049 -0.0403,-0.01578 -0.054,-0.03455 -0.0931,-0.112069 -0.17526,-0.235256 -0.26689,-0.348735 0.0161,0.0242 0.036,0.05279 0.0288,0.06892 -0.0123,0.03175 -0.0603,-0.03578 -0.0827,-0.06174 -0.24709,-0.291049 -0.35619,-0.516975 -0.23646,-0.28156 -0.18504,-0.240377 -0.27717,-0.420824 -0.37668,-0.68658 l -0.006,-0.0052 c 0.0181,0.04366 0.0362,0.08753 0.054,0.130667 -0.001,0.0087 -0.004,0.02332 -0.007,0.01577 -0.0984,-0.100498 -0.18827,-0.209156 -0.28207,-0.314254 0.0161,0.02473 0.0633,0.09507 0.0455,0.07262 -0.0791,-0.10032 -0.15668,-0.202562 -0.23142,-0.306957 -0.15597,-0.08067 -0.23861,-0.240413 -0.30569,-0.408668 -0.018,-0.0214 -0.0229,-0.03332 -0.0405,-0.05455 -0.0813,-0.0349 -0.16597,-0.08718 -0.25506,-0.181532 v -0.0017 c -0.0777,-0.08243 -0.27817,-0.303098 -0.38342,-0.388691 -0.0803,-0.06543 -0.17509,-0.10857 -0.25674,-0.172588 -0.40086,-0.314237 0.0548,0.02227 -0.22296,-0.1799 -0.18565,-0.149261 -0.0559,-0.02877 -0.25335,-0.292418 -0.0101,-0.01049 0.0267,0.05369 0.0161,0.04192 -0.0453,-0.06086 -0.085,-0.126111 -0.13173,-0.185216 -0.0161,-0.02105 0.0266,0.04736 0.0406,0.07086 -0.0347,-0.03158 -0.0716,-0.05717 -0.10307,-0.09086 -0.0516,-0.0563 -0.0952,-0.120311 -0.14525,-0.178059 -0.0161,-0.01842 -0.0399,-0.02824 -0.0591,-0.04174 -0.0876,-0.07068 -0.0924,-0.08033 -0.17904,-0.16522 -0.0101,-0.04998 -0.0207,-0.08437 -0.0354,-0.11085 -0.0934,-0.06244 -0.18084,-0.135757 -0.25843,-0.225224 -0.32422,-0.10787 -0.32451,-0.215839 -0.58441,-0.484982 -0.0123,-0.01403 0.0143,0.03472 0.0202,0.05262 -0.0812,-0.09594 -0.15954,-0.193793 -0.24323,-0.286997 -0.036,-0.03999 0.0663,0.08437 0.0998,0.127164 -0.0414,-0.02824 -0.0798,-0.06349 -0.12503,-0.08542 -0.0101,-0.0087 0.0268,0.04087 0.0161,0.03455 -0.15812,-0.117869 -0.32334,-0.228379 -0.46619,-0.366888 -0.16865,-0.163643 -0.30401,-0.387147 -0.4476,-0.5885 -0.0112,0.0207 -0.0658,-0.02596 -0.0946,-0.04157 -0.0984,-0.05753 -0.20672,-0.103134 -0.28714,-0.187058 -0.0785,-0.08243 -0.14131,-0.190723 -0.20943,-0.29061 -0.0987,-0.12541 -0.19241,-0.256393 -0.30911,-0.361453 -0.0347,-0.03174 0.0716,0.16452 0.0322,0.143648 -0.10844,-0.05508 -0.17277,-0.179709 -0.26519,-0.261582 -0.0101,-0.0087 -0.0254,9.46e-4 -0.0372,-0.0087 -0.39144,-0.286471 -0.13488,-0.153996 -0.38512,-0.272458 -0.11794,-0.11138 -0.23703,-0.22289 -0.35468,-0.334213 -0.0789,-0.03964 -0.15384,-0.08752 -0.22974,-0.134351 0.0101,0.01222 0.0209,0.02245 0.0304,0.03455 0.026,0.03315 -0.1342,-0.09208 -0.098,-0.07454 0.0232,0.01222 0.0453,0.02613 0.0675,0.03999 -0.12846,-0.160486 -0.26679,-0.31136 -0.40032,-0.466794 0.0409,0.07086 0.11024,0.130493 0.12162,0.21249 0.007,0.04577 -0.0639,-0.06262 -0.10306,-0.08173 -0.0101,-0.0035 0.0101,0.03631 0.001,0.03087 -0.42953,-0.286805 -0.30888,-0.208491 -0.65873,-0.681124 0.0441,0.07314 0.10821,0.136806 0.13351,0.219768 0.0101,0.03561 -0.0609,-0.03613 -0.0845,-0.06349 -0.10071,-0.116985 -0.18556,-0.249549 -0.28544,-0.366906 -0.0123,-0.01842 0.0476,0.06298 0.0254,0.06349 -0.0336,9.29e-4 -0.0597,-0.03578 -0.0827,-0.06174 -0.10945,-0.123302 -0.2082,-0.255215 -0.31248,-0.383253 -0.2363,-0.270299 -0.56991,-0.409596 -0.82763,-0.650273 -0.20636,-0.192565 -0.39341,-0.422026 -0.58949,-0.633889 -0.0906,-0.05819 -0.17545,-0.121706 -0.25506,-0.187053 -0.0203,-0.01438 -0.0399,-0.03144 -0.0591,-0.0437 -0.43518,-0.274862 -0.52448,-0.436549 -0.77697,-0.902732 0.051,0.16908 0.007,0.02144 -0.11643,-0.134368 -0.001,-0.0019 -0.004,-0.0041 -0.007,-0.0061 -5.4e-4,0.002 0.0311,0.05758 0.0161,0.05454 -0.0484,-0.01015 -0.0847,-0.05186 -0.12503,-0.08169 -0.24024,-0.178883 -0.2232,-0.178475 -0.44761,-0.395976 -0.0559,-0.06414 -0.11314,-0.126592 -0.16883,-0.190728 -0.28129,-0.156222 -0.49224,-0.348149 -0.68239,-0.639346 -0.0635,-0.0972 -0.0927,-0.176026 -0.12503,-0.248846 -0.0214,-0.01421 -0.0365,-0.02451 -0.10811,-0.06168 -0.11147,-0.110489 -0.22017,-0.225545 -0.33442,-0.332406 -0.0327,-0.03166 -0.0698,-0.05168 -0.10464,-0.07821 -0.0929,-0.113527 -0.18098,-0.232874 -0.27869,-0.341493 -0.0377,-0.04145 -0.0924,-0.06249 -0.12504,-0.109044 -0.1581,-0.22444 -0.2258,-0.397669 -0.25841,-0.481352 -8.8e-4,-0.002 -2.5e-4,1.64e-4 -0.001,-0.0041 -0.0112,-0.01222 -0.0204,-0.02309 -0.0304,-0.03451 -7.6e-4,0.0019 -0.001,0.01222 -0.004,0.01438 v 0.0019 c -0.004,0.01631 -0.007,0.0292 -0.0143,0.07635 -0.21046,-0.118025 -0.38214,-0.275798 -0.54388,-0.446842 -0.004,0.0041 -0.006,0.01015 -0.0112,0.01438 -0.0326,0.03164 -0.0854,-0.02246 -0.12505,-0.04186 -0.14828,-0.07494 -0.36608,-0.239473 -0.49149,-0.328751 -0.0941,-0.06718 -0.18729,-0.135791 -0.28208,-0.201551 -0.11023,-0.07658 -0.2255,-0.143754 -0.33275,-0.225218 -0.28894,-0.219786 -0.58968,-0.514109 -0.86143,-0.748333 -0.16008,-0.137842 -1.41427,-1.185209 -1.52185,-1.2751 -0.21737,-0.185826 -0.43873,-0.366628 -0.65197,-0.557623 -0.51588,-0.462056 -0.8825,-0.821805 -1.36308,-1.322312 -0.24319,-0.253073 -0.48744,-0.506981 -0.72123,-0.770141 -0.53147,-0.598262 -0.70206,-0.855581 -1.19248,-1.509388 -0.11493,-0.17684 -0.23047,-0.35311 -0.34458,-0.53038 -0.0605,-0.08515 -0.11643,-0.167238 -0.22127,-0.263384 -0.43957,-0.372574 -0.82116,-0.813046 -1.20768,-1.246023 -0.0123,-0.01438 -0.0249,-0.02656 -0.0372,-0.04002 -0.3902,-0.261505 -0.20852,-0.120482 -0.6013,-0.504959 -0.19121,-0.255175 -0.41266,-0.545923 -0.59285,-0.808266 -0.069,-0.100467 -0.1374,-0.201347 -0.2044,-0.303326 -0.0319,-0.02675 -0.0623,-0.05555 -0.0945,-0.08167 -0.11024,-0.08924 -0.22775,-0.167045 -0.3395,-0.254276 -0.4098,-0.319153 -0.40776,-0.327646 -0.80906,-0.681148 -0.20277,-0.220808 -0.40252,-0.444964 -0.60469,-0.666608 -0.007,-0.0083 -0.0309,-0.02818 -0.0288,-0.02899 -0.004,-0.0041 -0.007,-0.01015 -0.0123,-0.01438 -0.004,-9.39e-4 0.0377,0.02635 -0.12668,-0.07821 -0.15918,-0.144173 -0.3402,-0.25342 -0.50333,-0.392318 -0.0803,-0.06861 -0.15454,-0.144789 -0.23141,-0.21797 -0.41973,-0.400795 -0.29633,-0.280558 -0.72291,-0.724726 -0.30594,-0.319234 -0.5962,-0.658501 -0.91716,-0.960869 -0.5136,-0.483906 -0.26052,-0.218928 -0.60469,-0.519458 -0.0142,0.03942 -0.0272,0.08087 -0.0592,0.107193 -0.22064,0.182355 -0.38637,-0.105782 -0.50672,-0.217947 -0.0579,-0.05411 -0.12723,-0.09271 -0.18244,-0.1507 -0.0142,-0.01015 -0.0498,-0.05594 -0.0895,-0.09619 -0.0112,-0.0083 -0.0232,-0.002 -0.0203,-0.01015 2.9e-4,-6.33e-4 0.0112,0.0061 0.0143,0.0061 l -0.0123,-0.01222 c -0.0412,-0.01631 0.004,0.002 -0.11314,-0.04717 -0.0296,-0.03513 -0.0646,-0.06554 -0.0895,-0.103522 -0.0101,-0.01839 0.0628,0.05084 0.0473,0.03818 -0.0431,-0.03471 -0.0859,-0.07332 -0.1182,-0.121705 -0.0123,-0.01015 -0.0262,-0.01839 -0.0388,-0.02899 -0.0326,-0.02818 -0.0628,-0.05983 -0.0945,-0.08903 -0.0101,-0.01421 -0.019,-0.03165 -0.0322,-0.04534 -0.0331,-0.03513 -0.0751,-0.06003 -0.10463,-0.09803 -0.0379,-0.0482 -0.0644,-0.105376 -0.0964,-0.158046 0.0373,0.0245 0.0257,0.02084 -0.0142,-0.04002 -0.0692,-0.07494 -0.13296,-0.138035 -0.19086,-0.225239 -0.0101,-0.01421 -0.007,-0.03634 -0.0161,-0.04901 -0.0362,-0.03963 -0.0844,-0.06656 -0.12326,-0.103532 -0.057,-0.05411 -0.0987,-0.125175 -0.16043,-0.174394 -0.0548,-0.05515 -0.11287,-0.105985 -0.16383,-0.165413 -0.16829,-0.196446 -0.10273,-0.155611 -0.23646,-0.334203 -0.12736,-0.170518 -0.0945,-0.09457 -0.24492,-0.272451 -0.004,-0.0041 -0.007,-0.0083 -0.0112,-0.01223 -0.16598,-0.07635 -0.33302,-0.150294 -0.48815,-0.261547 -0.3007,-0.215823 -0.34781,-0.399507 -0.28714,-0.201549 -0.46779,-0.309311 -0.10821,-0.03532 -0.53374,-0.483152 -0.0229,-0.02471 0.0947,0.09148 0.0608,0.09087 -0.0516,-0.0019 -0.082,-0.06881 -0.12846,-0.09271 -0.0101,-0.0083 0.0101,0.0241 0.0123,0.03451 -0.12189,-0.08924 -0.24486,-0.17766 -0.36651,-0.266998 0.0891,0.156223 -0.0919,-0.128035 -0.2483,-0.34329 0.001,0.002 -0.0161,-0.01015 -0.0161,-0.0083 0.0524,0.08086 0.12491,0.187051 0.0862,0.147226 -0.1122,-0.116597 -0.11315,-0.126204 -0.16543,-0.185217 -0.0244,-0.01438 -0.001,0.01015 -0.0473,-0.02185 -0.39606,-0.471695 -0.31963,-0.377719 -0.4155,-0.726543 -0.0101,-0.0061 -0.0161,-0.01222 -0.0238,-0.01839 -0.001,-9.38e-4 -0.004,-0.002 -0.006,-0.0041 -0.29317,-0.219051 -0.42267,-0.482682 -0.46113,-0.775595 -0.35781,-0.09189 -0.20213,-0.01438 -0.87493,-0.67206 0.10049,0.08474 0.39216,0.34956 0.30065,0.254297 -0.19152,-0.198896 -0.401,-0.378127 -0.6013,-0.566711 0.11397,0.09148 0.44402,0.381702 0.34286,0.274288 -2.09703,-2.228475 1.0808,1.298033 -1.01175,-1.044409 0.5983,0.633507 -0.18415,-0.191952 -0.21788,-0.248844 -0.0211,-0.03513 0.0446,0.01438 0.10642,0.05819 -0.06,-0.03961 -0.11807,-0.0825 -0.17741,-0.12355 -0.22333,-0.230386 -0.44552,-0.463364 -0.66886,-0.69387 h -0.004 -0.001 -0.007 c -0.10396,-0.06269 -0.21611,-0.168677 -0.22465,-0.257911 -0.18367,-0.07393 -0.27364,-0.120899 -0.57091,-0.321504 -0.20009,-0.181333 -0.4011,-0.361789 -0.60132,-0.543084 0.0399,0.02471 0.15188,0.113527 0.11985,0.07618 -0.14382,-0.159889 -0.30252,-0.305918 -0.45264,-0.459543 -0.0677,-0.02246 -0.13448,-0.04676 -0.20271,-0.06535 -0.15848,-0.10823 -0.31782,-0.216885 -0.47631,-0.325134 0.0919,0.04085 0.35846,0.180312 0.2753,0.121703 -0.27618,-0.19481 -0.59451,-0.318358 -0.85803,-0.532201 -0.27423,-0.222848 -0.43276,-0.611779 -0.62157,-0.911819 0.0787,0.0727 0.31196,0.295283 0.23646,0.217969 -0.16401,-0.168467 -0.34976,-0.312985 -0.50334,-0.492236 -0.033,-0.03839 0.16901,0.0972 0.13351,0.06167 -0.16991,-0.169079 -0.40462,-0.266529 -0.5422,-0.466791 -0.17437,-0.253807 -0.28543,-0.549581 -0.40875,-0.837347 -0.0667,-0.100258 -0.14937,-0.2428 -0.23138,-0.386886 -0.0714,-0.05472 -0.13883,-0.115583 -0.21452,-0.159892 -0.0295,-0.02512 -0.0595,-0.04984 -0.0895,-0.07455 -0.0495,-0.02533 -0.0993,-0.05227 -0.14864,-0.07821 -0.0429,-0.02818 -0.0845,-0.05801 -0.12831,-0.08352 -0.0969,-0.05656 -0.11114,-0.04758 -0.21283,-0.101691 -0.10945,-0.05819 -0.20521,-0.129452 -0.30066,-0.210699 -0.16132,-0.175201 -0.12463,-0.132334 -0.10127,-0.105376 l -0.0112,-0.01015 c -0.0286,-0.03777 -0.0143,-0.01631 -0.0322,-0.04002 l -0.001,-0.0019 c -0.14024,-0.182354 -0.0454,-0.04228 -0.0269,-0.01631 -0.14526,-0.07658 -0.20877,-0.162346 -0.27364,-0.261567 0.007,0.01015 0.0213,0.02757 0.0143,0.02367 -0.0801,-0.04002 -0.10632,-0.125981 -0.13502,-0.207062 -0.001,-3.91e-4 -0.007,-0.0019 -0.0101,-0.0019 0.007,0.02185 0.007,0.02738 0.0143,0.04002 -0.0123,-0.01631 -0.0261,-0.03227 -0.0388,-0.04901 -0.0853,-0.03267 -0.12627,-0.09924 -0.16382,-0.179906 -0.11574,-0.07719 -0.22437,-0.167658 -0.34796,-0.230668 -0.092,-0.05697 -0.0529,-0.03451 -0.11643,-0.06168 -0.0143,-0.0041 -0.0296,-0.0083 -0.0406,-0.0083 -0.039,-0.01839 -0.0794,-0.03228 -0.11643,-0.05269 -0.0489,-0.02758 -0.0407,-0.0339 -0.022,-0.03084 -0.052,-0.03003 -0.1234,-0.08332 -0.13846,-0.07454 -0.004,0.002 -0.0123,0.0019 0.001,0.0237 -0.0123,-0.01438 -0.0243,-0.02697 -0.0372,-0.04002 -10e-4,-9.36e-4 -0.004,2.46e-4 -0.006,-0.0019 -0.0112,-0.0083 -0.0101,-0.01438 -0.0161,-0.02185 -0.0598,-0.05269 -0.0732,-0.07473 -0.12845,-0.145401 -0.0421,-0.06922 -0.082,-0.13886 -0.12327,-0.208882 -0.004,-0.0083 -0.0632,-0.103134 -0.0625,-0.125384 2.5e-4,-0.0083 0.0142,0.0083 0.0161,0.01015 -0.13488,-0.163784 -0.0179,-0.0061 -0.10306,-0.141719 -0.0123,-0.02104 -0.0324,-0.03555 -0.0422,-0.05819 -0.001,-0.0083 0.0219,0.0083 0.0186,0.0041 -0.0262,-0.03166 -0.0654,-0.0533 -0.0812,-0.08903 h -0.001 -0.001 c -0.33543,-0.171324 -0.47852,-0.341002 -0.603,-0.672059 -0.006,-0.0083 -0.0123,-0.01632 -0.0186,-0.02533 -0.007,-0.01015 -0.0143,-0.02572 -0.0203,-0.03268 -0.0161,-0.02104 -0.0349,-0.03676 -0.0506,-0.05635 -0.0161,-0.01838 -0.0493,-0.03615 -0.0421,-0.06004 0.007,-0.02042 0.0359,0.01631 0.0541,0.0237 -0.0981,-0.05819 -0.087,-0.04125 -0.15364,-0.116205 -0.0101,-0.01222 -0.0161,-0.02776 -0.0288,-0.03818 -0.0887,-0.07861 -0.20249,-0.128243 -0.26689,-0.236122 -0.0586,-0.05472 -0.1016,-0.08945 -0.15025,-0.152539 -0.007,-0.01015 -0.0112,-0.02471 -0.0161,-0.03451 -0.0355,-0.04717 -0.0837,-0.08251 -0.11643,-0.132527 -0.089,-0.11129 -0.21748,-0.166834 -0.30404,-0.281518 -0.0481,-0.05288 -0.0957,-0.108638 -0.14687,-0.1580477 -0.0332,-0.03246 -0.0697,-0.060433 -0.10127,-0.094567 -0.0189,-0.021445 -0.0384,-0.044114 -0.0575,-0.06717 -0.007,-0.00607 -0.0143,-0.010147 -0.022,-0.016319 0.004,-0.00188 0.0123,-0.010147 0.0112,-0.010147 -0.0757,-0.04676 -0.15652,-0.068822 -0.2027,-0.1580465 -0.0229,-0.023893 -0.0473,-0.045547 -0.0692,-0.070862 -0.0296,-0.035138 -0.0491,-0.082306 -0.0845,-0.1108835 -0.15329,-0.1235495 -0.033,0.025943 -0.20946,-0.1598886 -0.0161,-0.016309 -0.0261,-0.041446 -0.0372,-0.061678 -0.0161,-0.024499 -0.0342,-0.047367 -0.049,-0.072703 -0.007,-9.373e-4 -0.0161,-0.010147 -0.0236,-0.010147 -0.11274,-0.076992 -0.21879,-0.1758217 -0.31586,-0.2742682 -0.0673,-0.1000585 -0.11671,-0.088227 -0.17063,-0.1506997 -0.0143,-0.016309 -0.0267,-0.034301 -0.0372,-0.052692 -0.006,-0.00408 -0.006,-0.00199 -0.0372,-0.023673 -0.004,-0.00199 0.02,0.00199 0.0143,0 -0.0824,-0.048392 -0.18259,-0.05515 -0.24828,-0.1380358 -0.0598,-0.060841 -0.14204,-0.1396834 -0.19593,-0.2070641 -0.007,-0.010147 -0.007,-0.025723 -0.0161,-0.034511 -0.0296,-0.035536 -0.0659,-0.042482 -0.0996,-0.074544 -0.007,-0.00607 0.0161,0.00826 0.0236,0.010147 -0.028,-0.024709 -0.0566,-0.051865 -0.0845,-0.076176 -0.004,-9.184e-4 -0.007,9.175e-4 -0.0123,0 -0.0511,-0.01839 -0.0901,-0.066155 -0.13501,-0.098008 -0.0101,-0.01839 -0.0508,-0.052283 -0.0322,-0.054543 0.0261,-0.00199 0.0856,0.062692 0.0607,0.052692 -0.078,-0.032052 -0.11779,-0.116388 -0.1824,-0.1670449 -0.039,-0.029479 -0.0876,-0.061573 -0.11643,-0.099912 -0.0197,-0.02632 -0.0337,-0.057849 -0.0455,-0.089001 -0.004,-0.00994 0.0112,0.01839 0.0203,0.023621 0.004,0.00282 -0.007,-0.013327 -0.0112,-0.018171 -0.0197,-0.019792 -0.0384,-0.038308 -0.0574,-0.058121 -0.0541,-0.081072 -0.006,-0.016476 -0.10307,-0.1162573 -0.0261,-0.028464 -0.0556,-0.056552 -0.0827,-0.085382 -0.0229,-0.028464 -0.043,-0.058947 -0.0676,-0.085382 -0.0123,-0.014729 -0.17063,-0.1608176 -0.19086,-0.1798229 -0.0296,-0.033757 -0.0585,-0.066019 -0.0845,-0.1017114 -0.0123,-0.017564 -0.019,-0.036372 -0.0322,-0.054491 -0.14256,-0.2208328 0.094,0.1738842 -0.11315,-0.1525765 -0.004,-0.00659 7.6e-4,-0.017375 -0.006,-0.023621 -0.0101,-0.017187 -0.0254,-0.030127 -0.0372,-0.045379 -0.0961,-0.094828 -0.0384,-0.042409 -0.17741,-0.1525576 -0.13173,-0.1248498 -0.22276,-0.2951094 -0.36821,-0.4050514 l -0.0676,-0.061761 c -0.0123,-0.015074 -0.0265,-0.029929 -0.0405,-0.043611 -0.0332,-0.030222 -0.0705,-0.053936 -0.10307,-0.085382 -0.11146,-0.1082316 -0.19236,-0.2389197 -0.26688,-0.3778039 -0.0229,-0.038214 -0.04,-0.079053 -0.0659,-0.1144506 -0.0429,-0.058414 -0.21505,-0.2360272 -0.25166,-0.2797172 -0.0362,-0.043057 -0.0677,-0.092077 -0.10306,-0.1362292 -0.0238,-0.029678 -0.0123,-0.022784 -0.0287,-0.041749 -0.0101,-0.00659 -0.0161,-0.013683 -0.0254,-0.020022 -0.0123,-0.01543 -0.0842,-0.086951 -0.0827,-0.1053643 4e-5,-9.3e-4 0.0101,-0.00847 0.0161,-0.010953 -6.8e-4,-9.3e-4 -0.0101,-0.010042 -0.0112,-0.010953 -0.0383,0.01157 -0.0222,0.022512 -0.18749,-0.054491 -0.0244,-0.02724 -0.0496,-0.054972 -0.0761,-0.0799 z m 15.09353,15.0503899 c -0.0781,-0.08086 0.15829,0.160712 0.23647,0.241574 -0.0612,-0.07821 -0.1312,-0.149892 -0.19932,-0.223402 -0.0123,-0.0061 -0.0234,-0.01015 -0.0372,-0.01839 z m 45.40047,44.42645 c 0.006,0.0035 0.0112,0.0087 0.0161,0.01222 -0.0101,-0.01222 -0.0179,-0.02332 -0.027,-0.03455 -0.006,-0.0052 0.0101,0.01403 0.0112,0.02193 z m 0.0161,0.01222 c 0.0179,0.0221 0.034,0.04472 0.0507,0.06717 0.074,0.05455 0.15347,0.101544 0.22971,0.152592 -0.11861,-0.09611 -0.18941,-0.151715 -0.28038,-0.219786 z M 129.26986,5.0356255 c 0.0143,-0.058874 0.0284,-0.1741991 0.0422,-0.2615571 l -0.28039,0.00188 c 0.019,0.090487 0.0388,0.2061007 0.0574,0.268819 0.0603,9.195e-4 0.11903,-0.00282 0.18074,-0.00952 z m 8.12105,6.8949135 c 0.007,-0.01223 0.054,0.05002 0.081,0.07453 -0.0379,-0.02982 -0.0536,-0.05371 -0.0744,-0.07086 z m 1.46274,1.369543 c -0.007,-0.01015 0.0101,0.02389 0.0186,0.03084 0.001,0.002 0.006,0.0041 0.0112,0.0083 -0.0112,-0.01222 -0.0182,-0.02594 -0.0288,-0.03818 z m 0.049,0.0019 c -0.0101,-0.02041 0.0101,0.02899 0.0203,0.06168 8.7e-4,6.76e-4 0.001,-7.96e-4 0.004,0.0019 -0.007,-0.02144 -0.0143,-0.04389 -0.0236,-0.0635 z m 1.93567,1.809098 c 0.0564,0.12069 0.0732,0.1601 0.1099,0.239757 0.20133,0.16315 0.10273,0.07596 -0.1099,-0.239757 z m 7.88289,8.097341 c -0.007,-0.01015 -0.007,0.02837 0,0.03818 0.004,0.0061 0.0101,0.01015 0.0143,0.01631 -0.004,-0.02041 -0.006,-0.04104 -0.0143,-0.05454 z m 0.0641,0.08902 c 10e-4,0.01438 0.004,0.0245 10e-4,0.03451 0.006,0.0061 0.0112,0.01438 0.0161,0.02041 -0.007,-0.02431 -0.007,-0.02512 -0.0161,-0.05454 z m 0.52192,0.79193 c -0.0112,-0.01223 0.0186,0.03125 0.0269,0.04534 0.007,0.0083 0.0187,0.01838 0.0236,0.0237 -0.0322,-0.04329 -0.0179,-0.03002 -0.0507,-0.06902 z m 55.97067,4.599015 c 0.001,0.01015 0.004,0.02185 0.006,0.03268 3.1e-4,-0.0041 -2.8e-4,-0.0083 0,-0.01223 -10e-4,-0.0061 -10e-4,-0.01438 -0.006,-0.02041 z m -39.26747,10.947235 c 0.0429,0.03757 0.0714,0.06902 0.12326,0.110883 0.0205,0.01631 0.043,0.03003 0.0641,0.04534 -0.0473,-0.03921 -0.11398,-0.09515 -0.18749,-0.156224 z m 0.86985,0.770141 c -0.007,0.02512 -0.0112,0.03737 -0.0421,0.12884 -0.007,0.02472 -0.0466,-0.0041 -0.0692,-0.01015 -0.0641,-0.01631 -0.0827,-0.02776 -0.12163,-0.04002 0.36663,0.30588 1.11592,0.932219 1.24821,1.046226 0.26018,0.224013 0.57882,0.533161 0.85974,0.746516 0.0288,0.02185 0.0597,0.04002 0.0895,0.06003 -0.0143,-0.02041 -0.0282,-0.03879 -0.0422,-0.05819 -0.37841,-0.264303 -0.58281,-0.709431 -0.99487,-0.920887 -0.76105,-0.710286 -0.0542,-0.01421 -0.63003,-0.673876 -0.0197,-0.02472 -0.0639,-0.0061 -0.0844,-0.03084 -0.12735,-0.143754 -0.16866,-0.192566 -0.21283,-0.247029 z m 2.75151,2.837148 c -0.007,0.0083 -0.0143,0.01631 -0.022,0.02553 -0.0161,0.02041 0.0325,-0.03246 0.0238,-0.02165 -8.4e-4,-9.38e-4 -4.2e-4,-0.002 -0.001,-0.0041 z m 11.38939,10.68931 c 0.007,0.01842 0.0409,0.06648 0.0607,0.0998 0.0185,0.01223 0.0542,0.03298 0.0845,0.05087 -0.0179,-0.02088 -0.036,-0.03929 -0.054,-0.05982 -0.0311,-0.02982 -0.0639,-0.05736 -0.0913,-0.09086 z m 14.18648,14.40563 c 0.12039,0.140492 0.33867,0.413194 0.40875,0.548527 0.0874,0.05647 0.16741,0.132071 0.25338,0.192566 -0.75961,-0.842664 -0.80443,-0.907173 -0.66213,-0.741059 z"
       inkscape:connector-curvature="0" />
    <path
       id="path35"
       style="fill:none;stroke:#000000;stroke-width:0.89679879px;stroke-linecap:butt;stroke-linejoin:miter;stroke-opacity:1"
       d="m 128.9794,4.4924996 c 0.04,0.2329863 0.0801,0.4272871 0.1182,0.5558118 0.0609,9.3e-4 0.12189,9.3e-4 0.18411,-0.00544 0.0123,-0.050212 0.0236,-0.1535221 0.0354,-0.2234083 z m 0.30232,0.5503617 c -0.0598,0.2536988 -0.12025,0.2144516 -0.18409,0.00544 -0.092,-0.00188 -0.18406,-0.00188 -0.27195,-0.020012 -0.0777,-0.015775 -0.1506,-0.051886 -0.22634,-0.076239 l 0.61145,74.8886737 h 77.21405 L 165.62203,40.14051 c -0.0453,-0.03921 -0.0922,-0.07618 -0.13684,-0.116205 -0.51589,-0.462054 -0.88251,-0.821805 -1.36309,-1.322312 -0.071,-0.07393 -0.14008,-0.150908 -0.21112,-0.225239 L 129.4996,4.9957862 c -0.0725,0.012741 -0.14703,0.041289 -0.21788,0.04722 z"
       inkscape:connector-curvature="0" />
    <path
       id="path464"
       style="fill:#ffffff;stroke:#000000;stroke-width:0.16014263;stroke-opacity:1"
       d="m 200.06383,72.909481 c 0.0969,0.09507 0.17634,0.173991 0.277,0.27244 -0.0493,-0.07489 -0.0941,-0.155049 -0.15883,-0.214332 -0.033,-0.03052 -0.0771,-0.04192 -0.1182,-0.05823 z m 1.29214,1.215148 c -0.006,7.02e-4 -0.0207,0.01842 -0.0288,0.02367 l 0.12845,0.125408 c -0.0626,-0.09348 -0.0764,-0.152066 -0.0996,-0.148907 z m 0.39523,0.435906 3.46429,3.373001 0.0161,-0.221594 c -0.52065,-0.441272 0.30576,0.420209 -0.52868,-0.474072 -1.4e-4,-0.143822 0.0123,-0.01403 -0.18073,-0.201544 -0.0815,-0.07839 -0.16472,-0.157153 -0.23139,-0.250638 -0.0229,-0.03175 0.12203,0.08367 0.0945,0.05823 -0.46244,-0.432923 0.0498,0.151541 -0.44929,-0.457725 -0.0917,-0.09068 -0.19011,-0.195634 -0.18749,-0.234309 7.9e-4,-0.01222 0.0213,0.0105 0.0337,0.01578 -0.14329,-0.112956 -0.46509,-0.356418 -0.48138,-0.368714 -0.0412,-0.03665 -0.0857,-0.06998 -0.12832,-0.105421 -0.0394,-0.01403 -0.0814,-0.02438 -0.11643,-0.04892 -0.17151,-0.12138 -0.31878,-0.280122 -0.47801,-0.419596 -0.0752,-0.05858 -0.15506,-0.110151 -0.22464,-0.176218 -0.12682,-0.120495 -0.23232,-0.267791 -0.36315,-0.383253 -0.067,-0.05946 -0.16257,-0.06473 -0.23985,-0.105421 z"
       inkscape:connector-curvature="0" />
  </g>
</svg>
