<?xml version="1.0" encoding="UTF-8" standalone="no"?>
<!-- Created with Inkscape (http://www.inkscape.org/) -->

<svg
   xmlns:dc="http://purl.org/dc/elements/1.1/"
   xmlns:cc="http://creativecommons.org/ns#"
   xmlns:rdf="http://www.w3.org/1999/02/22-rdf-syntax-ns#"
   xmlns:svg="http://www.w3.org/2000/svg"
   xmlns="http://www.w3.org/2000/svg"
   xmlns:sodipodi="http://sodipodi.sourceforge.net/DTD/sodipodi-0.dtd"
   xmlns:inkscape="http://www.inkscape.org/namespaces/inkscape"
   width="210mm"
   height="297mm"
   viewBox="0 0 210 297"
   version="1.1"
   id="svg197"
   inkscape:version="0.92.4 (5da689c313, 2019-01-14)"
   sodipodi:docname="putbox.svg">
  <defs
     id="defs191" />
  <sodipodi:namedview
     id="base"
     pagecolor="#ffffff"
     bordercolor="#666666"
     borderopacity="1.0"
     inkscape:pageopacity="0.0"
     inkscape:pageshadow="2"
     inkscape:zoom="0.24748737"
     inkscape:cx="76.192609"
     inkscape:cy="614.48404"
     inkscape:document-units="mm"
     inkscape:current-layer="layer1"
     showgrid="false"
     inkscape:window-width="1366"
     inkscape:window-height="705"
     inkscape:window-x="-8"
     inkscape:window-y="-8"
     inkscape:window-maximized="1" />
  <metadata
     id="metadata194">
    <rdf:RDF>
      <cc:Work
         rdf:about="">
        <dc:format>image/svg+xml</dc:format>
        <dc:type
           rdf:resource="http://purl.org/dc/dcmitype/StillImage" />
        <dc:title></dc:title>
      </cc:Work>
    </rdf:RDF>
  </metadata>
  <g
     inkscape:label="Camada 1"
     inkscape:groupmode="layer"
     id="layer1">
    <rect
       style="fill:#0000ff;stroke:#000000;stroke-width:2.58310413;stroke-opacity:1"
       id="rect199"
       width="29.574657"
       height="30.431854"
       x="90.211075"
       y="131.27423" />
    <rect
       style="fill:#0000ff;stroke:#000000;stroke-width:2.58310413;stroke-opacity:1"
       id="rect203"
       width="29.574678"
       height="30.431919"
       x="119.78569"
       y="131.27423" />
    <rect
       style="fill:#0000ff;stroke:#000000;stroke-width:2.58310413;stroke-opacity:1"
       id="rect205"
       width="30.231846"
       height="30.431919"
       x="59.979225"
       y="131.27423" />
    <rect
       style="fill:#0000ff;stroke:#000000;stroke-width:2.58310413;stroke-opacity:1"
       id="rect207"
       width="29.574678"
       height="27.194471"
       x="90.211075"
       y="104.07992" />
    <rect
       style="fill:#0000ff;stroke:#000000;stroke-width:2.79105902;stroke-opacity:1"
       id="rect209"
       width="29.365099"
       height="28.930334"
       x="90.315865"
       y="161.80927" />
    <rect
       style="fill:#0000ff;stroke:#000000;stroke-width:2.58310413;stroke-opacity:1"
       id="rect211"
       width="29.574659"
       height="27.194405"
       x="119.78569"
       y="104.07992" />
    <rect
       style="fill:#0000ff;stroke:#000000;stroke-width:2.77676702;stroke-opacity:1"
       id="rect213"
       width="29.379551"
       height="28.62071"
       x="119.88329"
       y="161.80215" />
    <rect
       style="fill:#0000ff;stroke:#000000;stroke-width:2.79126072;stroke-opacity:1"
       id="rect215"
       width="30.022169"
       height="28.930151"
       x="60.084049"
       y="161.80942" />
    <rect
       style="fill:#0000ff;stroke:#000000;stroke-width:2.58310413;stroke-opacity:1"
       id="rect217"
       width="30.231808"
       height="27.194405"
       x="59.979225"
       y="104.07992"
       ry="0" />
    <rect
       style="fill:#0000ff;stroke:#000000;stroke-width:2.58310413;stroke-opacity:1"
       id="rect219"
       width="29.574633"
       height="27.194492"
       x="90.211075"
       y="76.885277" />
    <rect
       style="fill:#0000ff;stroke:#000000;stroke-width:2.58310413;stroke-opacity:1"
       id="rect227"
       width="29.574673"
       height="29.784435"
       x="149.36026"
       y="131.92172" />
    <rect
       style="fill:#0000ff;stroke:#000000;stroke-width:2.58310413;stroke-opacity:1"
       id="rect229"
       width="28.917479"
       height="30.431919"
       x="31.061789"
       y="131.27423" />
    <rect
       style="fill:#0000ff;stroke:#000000;stroke-width:2.58310413;stroke-opacity:1"
       id="rect231"
       width="29.469877"
       height="26.974049"
       x="90.211075"
       y="190.73956" />
    <rect
       style="fill:#0000ff;stroke:#000000;stroke-width:2.58310413;stroke-opacity:1"
       id="rect233"
       width="28.917505"
       height="27.194405"
       x="31.061789"
       y="104.07992" />
    <rect
       style="fill:#0000ff;stroke:#000000;stroke-width:2.58310413;stroke-opacity:1"
       id="rect235"
       width="29.574673"
       height="27.194471"
       x="149.36026"
       y="104.07992" />
    <rect
       style="fill:#0000ff;stroke:#000000;stroke-width:2.58310413;stroke-opacity:1"
       id="rect237"
       width="29.67214"
       height="28.716805"
       x="149.26274"
       y="161.70607" />
    <rect
       style="fill:#0000ff;stroke:#000000;stroke-width:2.58310413;stroke-opacity:1"
       id="rect239"
       width="29.022348"
       height="29.033388"
       x="31.061789"
       y="161.70615" />
    <rect
       style="fill:#0000ff;stroke:#000000;stroke-width:2.58310413;stroke-opacity:1"
       id="rect241"
       width="30.231808"
       height="27.194553"
       x="59.979225"
       y="76.885277" />
    <rect
       style="fill:#0000ff;stroke:#000000;stroke-width:2.58310413;stroke-opacity:1"
       id="rect243"
       width="29.574659"
       height="27.194553"
       x="119.78569"
       y="76.885277" />
    <rect
       style="fill:#0000ff;stroke:#000000;stroke-width:2.58310413;stroke-opacity:1"
       id="rect245"
       width="29.58186"
       height="27.290661"
       x="119.68098"
       y="190.42293" />
    <rect
       style="fill:#0000ff;stroke:#000000;stroke-width:2.58310413;stroke-opacity:1"
       id="rect247"
       width="30.12697"
       height="26.974016"
       x="60.084049"
       y="190.73956" />
    <rect
       style="fill:#0000ff;stroke:#000000;stroke-width:2.58310413;stroke-opacity:1"
       id="rect253"
       width="29.574738"
       height="29.784435"
       x="178.93486"
       y="131.92172" />
    <rect
       style="fill:#0000ff;stroke:#000000;stroke-width:2.58310413;stroke-opacity:1"
       id="rect257"
       width="28.260195"
       height="29.784506"
       x="2.8016117"
       y="131.92172" />
    <rect
       style="fill:#0000ff;stroke:#000000;stroke-width:2.58310413;stroke-opacity:1"
       id="rect259"
       width="28.917505"
       height="27.194553"
       x="31.061789"
       y="76.885277" />
    <rect
       style="fill:#0000ff;stroke:#000000;stroke-width:2.58310413;stroke-opacity:1"
       id="rect261"
       width="29.574673"
       height="27.194492"
       x="149.36026"
       y="76.885277" />
    <rect
       style="fill:#0000ff;stroke:#000000;stroke-width:2.58310413;stroke-opacity:1"
       id="rect263"
       width="29.67214"
       height="27.290735"
       x="149.26274"
       y="190.42282" />
    <rect
       style="fill:#0000ff;stroke:#000000;stroke-width:2.58310413;stroke-opacity:1"
       id="rect265"
       width="29.022348"
       height="26.974091"
       x="31.061789"
       y="190.73955" />
    <rect
       style="fill:#0000ff;stroke:#000000;stroke-width:2.58310413;stroke-opacity:1"
       id="rect267"
       width="29.574726"
       height="28.716736"
       x="178.93486"
       y="161.70607" />
    <rect
       style="fill:#0000ff;stroke:#000000;stroke-width:2.58310413;stroke-opacity:1"
       id="rect269"
       width="28.260218"
       height="29.033312"
       x="2.8016117"
       y="161.70615" />
    <rect
       style="fill:#0000ff;stroke:#000000;stroke-width:2.58310413;stroke-opacity:1"
       id="rect275"
       width="29.574726"
       height="27.841827"
       x="178.93486"
       y="104.07992" />
    <rect
       style="fill:#0000ff;stroke:#000000;stroke-width:2.58310413;stroke-opacity:1"
       id="rect281"
       width="28.260218"
       height="27.841827"
       x="2.8016117"
       y="104.07992" />
    <rect
       style="fill:#0000ff;stroke:#000000;stroke-width:2.58310413;stroke-opacity:1"
       id="rect294"
       width="28.260218"
       height="27.194553"
       x="2.8016117"
       y="76.885277" />
    <rect
       style="fill:#0000ff;stroke:#000000;stroke-width:2.58310413;stroke-opacity:1"
       id="rect296"
       width="28.260218"
       height="26.974157"
       x="2.8016117"
       y="190.73943" />
    <rect
       style="fill:#0000ff;stroke:#000000;stroke-width:2.58310413;stroke-opacity:1"
       id="rect300"
       width="29.574726"
       height="27.194553"
       x="178.93486"
       y="76.885277" />
    <rect
       style="fill:#0000ff;stroke:#000000;stroke-width:2.58310413;stroke-opacity:1"
       id="rect304"
       width="29.574726"
       height="27.290813"
       x="178.93486"
       y="190.42265" />
    <path
       style="fill:#0000ff;stroke:#000000;stroke-width:0.62172806;stroke-opacity:1"
       d="M 4.3310033,146.93011 V 133.51517 H 16.778886 29.226781 v 13.41494 13.41495 H 16.778886 4.3310033 Z"
       id="path4362"
       inkscape:connector-curvature="0" />
    <path
       style="fill:#0000ff;stroke:#000000;stroke-width:0.62172806;stroke-opacity:1"
       d="m 4.3310033,118.14387 v -12.5765 H 16.778886 29.226781 v 12.5765 12.57652 H 16.778886 4.3310033 Z"
       id="path4364"
       inkscape:connector-curvature="0" />
    <path
       style="fill:#0000ff;stroke:#000000;stroke-width:0.62172806;stroke-opacity:1"
       d="M 4.3310033,90.475539 V 78.178519 H 16.778886 29.226781 v 12.29702 12.297041 H 16.778886 4.3310033 Z"
       id="path4366"
       inkscape:connector-curvature="0" />
    <path
       style="fill:#0000ff;stroke:#000000;stroke-width:0.62172806;stroke-opacity:1"
       d="M 32.684516,90.475539 V 78.178519 H 45.478191 58.27185 v 12.29702 12.297041 H 45.478191 32.684516 Z"
       id="path4368"
       inkscape:connector-curvature="0" />
    <path
       style="fill:#0000ff;stroke:#000000;stroke-width:0.62172806;stroke-opacity:1"
       d="M 32.684516,117.86441 V 105.56737 H 45.478191 58.27185 v 12.29704 12.29703 H 45.478191 32.684516 Z"
       id="path4370"
       inkscape:connector-curvature="0" />
    <path
       style="fill:#0000ff;stroke:#000000;stroke-width:0.62172806;stroke-opacity:1"
       d="m 61.729591,90.475539 v -12.29702 h 13.485204 13.485221 v 12.29702 12.297041 H 75.214795 61.729591 Z"
       id="path4376"
       inkscape:connector-curvature="0" />
    <path
       style="fill:#0000ff;stroke:#000000;stroke-width:0.62172806;stroke-opacity:1"
       d="m 61.729591,117.86441 v -12.29704 h 13.485204 13.485221 v 12.29704 12.29703 H 75.214795 61.729591 Z"
       id="path4378"
       inkscape:connector-curvature="0" />
    <path
       style="fill:#0000ff;stroke:#000000;stroke-width:0.62172806;stroke-opacity:1"
       d="m 121.20282,117.86441 v -12.29704 h 13.13945 13.13944 v 12.29704 12.29703 h -13.13944 -13.13945 z"
       id="path4380"
       inkscape:connector-curvature="0" />
    <path
       style="fill:#0000ff;stroke:#000000;stroke-width:0.62172806;stroke-opacity:1"
       d="m 92.157742,90.475539 v -12.29702 h 12.793708 12.79366 v 12.29702 12.297041 H 104.95145 92.157742 Z"
       id="path4382"
       inkscape:connector-curvature="0" />
    <path
       style="fill:#0000ff;stroke:#000000;stroke-width:0.62172806;stroke-opacity:1"
       d="m 92.157742,117.86441 v -12.29704 h 12.793708 12.79366 v 12.29704 12.29703 H 104.95145 92.157742 Z"
       id="path4384"
       inkscape:connector-curvature="0" />
    <path
       style="fill:#0000ff;stroke:#000000;stroke-width:0.62172806;stroke-opacity:1"
       d="m 121.20282,90.475539 v -12.29702 h 13.13945 13.13944 v 12.29702 12.297041 h -13.13944 -13.13945 z"
       id="path4392"
       inkscape:connector-curvature="0" />
    <path
       style="fill:#0000ff;stroke:#000000;stroke-width:0.62172806;stroke-opacity:1"
       d="m 150.93945,90.475539 v -12.29702 h 13.13946 13.13943 v 12.29702 12.297041 h -13.13943 -13.13946 z"
       id="path4394"
       inkscape:connector-curvature="0" />
    <path
       style="fill:#0000ff;stroke:#000000;stroke-width:0.62172806;stroke-opacity:1"
       d="m 180.6761,90.475539 v -12.29702 h 13.13944 13.13941 v 12.29702 12.297041 H 193.81554 180.6761 Z"
       id="path4398"
       inkscape:connector-curvature="0" />
    <path
       style="fill:#0000ff;stroke:#000000;stroke-width:0.62172806;stroke-opacity:1"
       d="m 180.6761,118.14387 v -12.5765 h 13.13944 13.13941 v 12.5765 12.57652 H 193.81554 180.6761 Z"
       id="path4400"
       inkscape:connector-curvature="0" />
    <path
       style="fill:#0000ff;stroke:#000000;stroke-width:0.62172806;stroke-opacity:1"
       d="m 150.93945,117.86441 v -12.29704 h 13.13946 13.13943 v 12.29704 12.29703 h -13.13943 -13.13946 z"
       id="path4402"
       inkscape:connector-curvature="0" />
    <path
       style="fill:#0000ff;stroke:#000000;stroke-width:0.62172806;stroke-opacity:1"
       d="m 150.93945,146.93011 v -13.41494 h 13.13946 13.13943 v 13.41494 13.41495 h -13.13943 -13.13946 z"
       id="path4404"
       inkscape:connector-curvature="0" />
    <path
       style="fill:#0000ff;stroke:#000000;stroke-width:0.62172806;stroke-opacity:1"
       d="m 180.6761,146.93011 v -13.41494 h 13.13944 13.13941 v 13.41494 13.41495 H 193.81554 180.6761 Z"
       id="path4406"
       inkscape:connector-curvature="0" />
    <path
       style="fill:#0000ff;stroke:#000000;stroke-width:0.62172806;stroke-opacity:1"
       d="m 150.93945,175.99582 v -12.856 h 13.13946 13.13943 v 12.856 12.856 h -13.13943 -13.13946 z"
       id="path4410"
       inkscape:connector-curvature="0" />
    <path
       style="fill:#0000ff;stroke:#000000;stroke-width:0.62172806;stroke-opacity:1"
       d="m 180.6761,175.99582 v -12.856 h 13.13944 13.13941 v 12.856 12.856 H 193.81554 180.6761 Z"
       id="path4412"
       inkscape:connector-curvature="0" />
    <path
       style="fill:#0000ff;stroke:#000000;stroke-width:0.62172806;stroke-opacity:1"
       d="M 180.6761,203.94362 V 191.6466 h 13.13944 13.13941 v 12.29702 12.29704 H 193.81554 180.6761 Z"
       id="path4414"
       inkscape:connector-curvature="0" />
    <path
       style="fill:#0000ff;stroke:#000000;stroke-width:0.62172806;stroke-opacity:1"
       d="M 150.93945,203.94362 V 191.6466 h 13.13946 13.13943 v 12.29702 12.29704 h -13.13943 -13.13946 z"
       id="path4416"
       inkscape:connector-curvature="0" />
    <path
       style="fill:#0000ff;stroke:#000000;stroke-width:0.62172806;stroke-opacity:1"
       d="M 121.20282,203.94362 V 191.6466 h 13.13945 13.13944 v 12.29702 12.29704 h -13.13944 -13.13945 z"
       id="path4418"
       inkscape:connector-curvature="0" />
    <path
       style="fill:#0000ff;stroke:#000000;stroke-width:0.62172806;stroke-opacity:1"
       d="m 121.89439,175.99582 v -12.856 h 12.79366 12.79366 v 12.856 12.856 h -12.79366 -12.79366 z"
       id="path4420"
       inkscape:connector-curvature="0" />
    <path
       style="fill:#0000ff;stroke:#000000;stroke-width:0.62172806;stroke-opacity:1"
       d="m 121.36366,146.51091 0.18495,-13.83417 12.96657,-0.15208 12.96653,-0.15208 v 13.98625 13.98623 H 134.33019 121.1787 Z"
       id="path4422"
       inkscape:connector-curvature="0" />
    <path
       style="fill:#0000ff;stroke:#000000;stroke-width:0.62172806;stroke-opacity:1"
       d="m 92.157742,146.37115 v -13.97389 h 12.793708 12.79366 v 13.97389 13.97391 H 104.95145 92.157742 Z"
       id="path4424"
       inkscape:connector-curvature="0" />
    <path
       style="fill:#0000ff;stroke:#000000;stroke-width:0.62172806;stroke-opacity:1"
       d="m 92.157742,176.27531 v -13.13549 h 12.793708 12.79366 v 13.13549 13.13545 H 104.95145 92.157742 Z"
       id="path4426"
       inkscape:connector-curvature="0" />
    <path
       style="fill:#0000ff;stroke:#000000;stroke-width:0.62172806;stroke-opacity:1"
       d="m 61.729591,146.37115 v -13.97389 h 13.485204 13.485221 v 13.97389 13.97391 H 75.214795 61.729591 Z"
       id="path4430"
       inkscape:connector-curvature="0" />
    <path
       style="fill:#0000ff;stroke:#000000;stroke-width:0.62172806;stroke-opacity:1"
       d="m 61.729591,204.22312 v -12.01758 h 13.485204 13.485221 v 12.01758 12.01754 H 75.214795 61.729591 Z"
       id="path4432"
       inkscape:connector-curvature="0" />
    <path
       style="fill:#0000ff;stroke:#000000;stroke-width:0.62172806;stroke-opacity:1"
       d="M 32.684516,176.27531 V 163.13982 H 45.478191 58.27185 v 13.13549 13.13545 H 45.478191 32.684516 Z"
       id="path4434"
       inkscape:connector-curvature="0" />
    <path
       style="fill:#0000ff;stroke:#000000;stroke-width:0.62172806;stroke-opacity:1"
       d="M 32.684516,146.37115 V 132.39726 H 45.478191 58.27185 v 13.97389 13.97391 H 45.478191 32.684516 Z"
       id="path4436"
       inkscape:connector-curvature="0" />
    <path
       style="fill:#0000ff;stroke:#000000;stroke-width:0.62172806;stroke-opacity:1"
       d="m 61.729591,176.27531 v -13.13549 h 13.139435 13.13944 v 13.13549 13.13545 H 74.869026 61.729591 Z"
       id="path4438"
       inkscape:connector-curvature="0" />
    <path
       style="fill:#0000ff;stroke:#000000;stroke-width:0.62172806;stroke-opacity:1"
       d="m 29.525013,176.27531 c 3.41e-4,-7.37822 0.09888,-10.31928 0.218668,-6.53569 0.119862,3.7836 0.119477,9.82032 -6.72e-4,13.41496 -0.120234,3.59463 -0.218299,0.49894 -0.21785,-6.87927 z"
       id="path4440"
       inkscape:connector-curvature="0" />
    <path
       style="fill:#0000ff;stroke:#000000;stroke-width:0.62172806;stroke-opacity:1"
       d="M 4.3310033,204.22312 V 192.20554 H 16.778886 29.226781 v 12.01758 12.01754 H 16.778886 4.3310033 Z"
       id="path4442"
       inkscape:connector-curvature="0" />
    <path
       style="fill:#0000ff;stroke:#000000;stroke-width:0.62172806;stroke-opacity:1"
       d="M 4.3310033,176.27531 V 163.13982 H 16.778886 29.226781 v 13.13549 13.13545 H 16.778886 4.3310033 Z"
       id="path4444"
       inkscape:connector-curvature="0" />
    <path
       style="fill:#0000ff;stroke:#000000;stroke-width:0.62172806;stroke-opacity:1"
       d="M 32.684516,204.22312 V 192.20554 H 45.478191 58.27185 v 12.01758 12.01754 H 45.478191 32.684516 Z"
       id="path4446"
       inkscape:connector-curvature="0" />
    <path
       style="fill:#0000ff;stroke:#000000;stroke-width:0.62172806;stroke-opacity:1"
       d="m 92.157742,204.22312 v -12.01758 h 12.793708 12.79366 v 12.01758 12.01754 H 104.95145 92.157742 Z"
       id="path4454"
       inkscape:connector-curvature="0" />
  </g>
</svg>
