<?xml version="1.0" encoding="UTF-8" standalone="no"?>
<!-- Created with Inkscape (http://www.inkscape.org/) -->

<svg
   xmlns:dc="http://purl.org/dc/elements/1.1/"
   xmlns:cc="http://creativecommons.org/ns#"
   xmlns:rdf="http://www.w3.org/1999/02/22-rdf-syntax-ns#"
   xmlns:svg="http://www.w3.org/2000/svg"
   xmlns="http://www.w3.org/2000/svg"
   xmlns:sodipodi="http://sodipodi.sourceforge.net/DTD/sodipodi-0.dtd"
   xmlns:inkscape="http://www.inkscape.org/namespaces/inkscape"
   width="210mm"
   height="297mm"
   viewBox="0 0 210 297"
   version="1.1"
   id="svg197"
   inkscape:version="0.92.4 (5da689c313, 2019-01-14)"
   sodipodi:docname="cutellipsoid.svg">
  <defs
     id="defs191" />
  <sodipodi:namedview
     id="base"
     pagecolor="#ffffff"
     bordercolor="#666666"
     borderopacity="1.0"
     inkscape:pageopacity="0.0"
     inkscape:pageshadow="2"
     inkscape:zoom="0.24748737"
     inkscape:cx="206.85407"
     inkscape:cy="621.31158"
     inkscape:document-units="mm"
     inkscape:current-layer="layer1"
     showgrid="false"
     inkscape:window-width="1366"
     inkscape:window-height="705"
     inkscape:window-x="-8"
     inkscape:window-y="-8"
     inkscape:window-maximized="1" />
  <metadata
     id="metadata194">
    <rdf:RDF>
      <cc:Work
         rdf:about="">
        <dc:format>image/svg+xml</dc:format>
        <dc:type
           rdf:resource="http://purl.org/dc/dcmitype/StillImage" />
        <dc:title></dc:title>
      </cc:Work>
    </rdf:RDF>
  </metadata>
  <g
     inkscape:label="Camada 1"
     inkscape:groupmode="layer"
     id="layer1">
    <rect
       style="fill:#d40000;stroke:#000000;stroke-width:2.06726456;stroke-opacity:1"
       id="rect199"
       width="15.778487"
       height="36.53347"
       x="97.646065"
       y="130.27585" />
    <rect
       style="fill:#d40000;stroke:#000000;stroke-width:2.06726456;stroke-opacity:1"
       id="rect203"
       width="15.778501"
       height="36.533546"
       x="113.42451"
       y="130.27585" />
    <rect
       style="fill:#d40000;stroke:#000000;stroke-width:2.06726456;stroke-opacity:1"
       id="rect205"
       width="16.129107"
       height="36.533546"
       x="81.51696"
       y="130.27585" />
    <rect
       style="fill:#d40000;stroke:#000000;stroke-width:2.06726456;stroke-opacity:1"
       id="rect207"
       width="15.778501"
       height="32.646988"
       x="97.646065"
       y="97.629044" />
    <rect
       style="fill:#d40000;stroke:#000000;stroke-width:2.23369098;stroke-opacity:1"
       id="rect209"
       width="15.666687"
       height="34.730892"
       x="97.701973"
       y="166.9332" />
    <rect
       style="fill:#d40000;stroke:#000000;stroke-width:2.06726456;stroke-opacity:1"
       id="rect211"
       width="15.778489"
       height="32.646908"
       x="113.42451"
       y="97.629044" />
    <rect
       style="fill:#d40000;stroke:#000000;stroke-width:2.22225356;stroke-opacity:1"
       id="rect213"
       width="15.674397"
       height="34.359192"
       x="113.4766"
       y="166.92465" />
    <rect
       style="fill:#d40000;stroke:#000000;stroke-width:2.23385262;stroke-opacity:1"
       id="rect215"
       width="16.017241"
       height="34.730675"
       x="81.572884"
       y="166.93336" />
    <rect
       style="fill:#d40000;stroke:#000000;stroke-width:2.06726456;stroke-opacity:1"
       id="rect217"
       width="16.129087"
       height="32.646908"
       x="81.51696"
       y="97.629044"
       ry="0" />
    <rect
       style="fill:#d40000;stroke:#000000;stroke-width:2.06726456;stroke-opacity:1"
       id="rect219"
       width="15.778477"
       height="32.647015"
       x="97.646065"
       y="64.981842" />
    <rect
       style="fill:#d40000;stroke:#000000;stroke-width:2.06726456;stroke-opacity:1"
       id="rect227"
       width="15.778497"
       height="35.756241"
       x="129.20297"
       y="131.05318" />
    <rect
       style="fill:#d40000;stroke:#000000;stroke-width:2.06726456;stroke-opacity:1"
       id="rect229"
       width="15.427874"
       height="36.533546"
       x="66.089104"
       y="130.27585" />
    <rect
       style="fill:#d40000;stroke:#000000;stroke-width:2.06726456;stroke-opacity:1"
       id="rect231"
       width="15.722586"
       height="32.38237"
       x="97.646065"
       y="201.66403" />
    <rect
       style="fill:#d40000;stroke:#000000;stroke-width:2.06726456;stroke-opacity:1"
       id="rect233"
       width="15.427888"
       height="32.646908"
       x="66.089104"
       y="97.629044" />
    <rect
       style="fill:#d40000;stroke:#000000;stroke-width:2.06726456;stroke-opacity:1"
       id="rect235"
       width="15.778497"
       height="32.646988"
       x="129.20297"
       y="97.629044" />
    <rect
       style="fill:#d40000;stroke:#000000;stroke-width:2.06726456;stroke-opacity:1"
       id="rect237"
       width="15.830497"
       height="34.474552"
       x="129.15096"
       y="166.80931" />
    <rect
       style="fill:#d40000;stroke:#000000;stroke-width:2.06726456;stroke-opacity:1"
       id="rect239"
       width="15.483825"
       height="34.85461"
       x="66.089104"
       y="166.80939" />
    <rect
       style="fill:#d40000;stroke:#000000;stroke-width:2.06726456;stroke-opacity:1"
       id="rect241"
       width="16.129087"
       height="32.647087"
       x="81.51696"
       y="64.981842" />
    <rect
       style="fill:#d40000;stroke:#000000;stroke-width:2.06726456;stroke-opacity:1"
       id="rect243"
       width="15.778489"
       height="32.647087"
       x="113.42451"
       y="64.981842" />
    <rect
       style="fill:#d40000;stroke:#000000;stroke-width:2.06726456;stroke-opacity:1"
       id="rect245"
       width="15.782331"
       height="32.762463"
       x="113.36866"
       y="201.28392" />
    <rect
       style="fill:#d40000;stroke:#000000;stroke-width:2.06726456;stroke-opacity:1"
       id="rect247"
       width="16.073156"
       height="32.382332"
       x="81.572884"
       y="201.66403" />
    <rect
       style="fill:#d40000;stroke:#000000;stroke-width:2.06726456;stroke-opacity:1"
       id="rect249"
       width="15.778501"
       height="30.314936"
       x="97.646065"
       y="34.666992" />
    <rect
       style="fill:#d40000;stroke:#000000;stroke-width:2.06726456;stroke-opacity:1"
       id="rect253"
       width="15.778532"
       height="35.756241"
       x="144.98143"
       y="131.05318" />
    <rect
       style="fill:#d40000;stroke:#000000;stroke-width:2.06726456;stroke-opacity:1"
       id="rect255"
       width="15.778501"
       height="31.481007"
       x="97.646065"
       y="234.0463" />
    <rect
       style="fill:#d40000;stroke:#000000;stroke-width:2.06726456;stroke-opacity:1"
       id="rect257"
       width="15.077204"
       height="35.756329"
       x="51.011909"
       y="131.05318" />
    <rect
       style="fill:#d40000;stroke:#000000;stroke-width:2.06726456;stroke-opacity:1"
       id="rect259"
       width="15.427888"
       height="32.647087"
       x="66.089104"
       y="64.981842" />
    <rect
       style="fill:#d40000;stroke:#000000;stroke-width:2.06726456;stroke-opacity:1"
       id="rect261"
       width="15.778497"
       height="32.647015"
       x="129.20297"
       y="64.981842" />
    <rect
       style="fill:#d40000;stroke:#000000;stroke-width:2.06726456;stroke-opacity:1"
       id="rect263"
       width="15.830497"
       height="32.762554"
       x="129.15096"
       y="201.2838" />
    <rect
       style="fill:#d40000;stroke:#000000;stroke-width:2.06726456;stroke-opacity:1"
       id="rect265"
       width="15.483825"
       height="32.38242"
       x="66.089104"
       y="201.664" />
    <rect
       style="fill:#d40000;stroke:#000000;stroke-width:2.06726456;stroke-opacity:1"
       id="rect267"
       width="15.778526"
       height="34.474468"
       x="144.98143"
       y="166.80931" />
    <rect
       style="fill:#d40000;stroke:#000000;stroke-width:2.06726456;stroke-opacity:1"
       id="rect269"
       width="15.077217"
       height="34.854519"
       x="51.011909"
       y="166.80939" />
    <rect
       style="fill:#d40000;stroke:#000000;stroke-width:2.06726456;stroke-opacity:1"
       id="rect271"
       width="16.129087"
       height="30.314959"
       x="81.51696"
       y="34.666992" />
    <rect
       style="fill:#d40000;stroke:#000000;stroke-width:2.06726456;stroke-opacity:1"
       id="rect273"
       width="15.778489"
       height="30.314959"
       x="113.42451"
       y="34.666992" />
    <rect
       style="fill:#d40000;stroke:#000000;stroke-width:2.06726456;stroke-opacity:1"
       id="rect275"
       width="15.778526"
       height="33.424141"
       x="144.98143"
       y="97.629044" />
    <rect
       style="fill:#d40000;stroke:#000000;stroke-width:2.06726456;stroke-opacity:1"
       id="rect277"
       width="15.726442"
       height="31.480934"
       x="113.42451"
       y="234.0463" />
    <rect
       style="fill:#d40000;stroke:#000000;stroke-width:2.06726456;stroke-opacity:1"
       id="rect279"
       width="16.073156"
       height="31.480934"
       x="81.572884"
       y="234.0463" />
    <rect
       style="fill:#d40000;stroke:#000000;stroke-width:2.06726456;stroke-opacity:1"
       id="rect281"
       width="15.077217"
       height="33.424141"
       x="51.011909"
       y="97.629044" />
    <rect
       style="fill:#d40000;stroke:#000000;stroke-width:2.06726456;stroke-opacity:1"
       id="rect283"
       width="15.778501"
       height="31.869604"
       x="97.646065"
       y="2.7973447" />
    <rect
       style="fill:#d40000;stroke:#000000;stroke-width:2.06726456;stroke-opacity:1"
       id="rect285"
       width="15.427861"
       height="35.756191"
       x="160.76001"
       y="131.05318" />
    <rect
       style="fill:#d40000;stroke:#000000;stroke-width:2.06726456;stroke-opacity:1"
       id="rect287"
       width="15.778477"
       height="30.315094"
       x="97.646065"
       y="265.5274" />
    <rect
       style="fill:#d40000;stroke:#000000;stroke-width:2.06726456;stroke-opacity:1"
       id="rect292"
       width="15.778479"
       height="35.756191"
       x="35.233376"
       y="131.05318" />
    <rect
       style="fill:#d40000;stroke:#000000;stroke-width:2.06726456;stroke-opacity:1"
       id="rect294"
       width="15.077217"
       height="32.647087"
       x="51.011909"
       y="64.981842" />
    <rect
       style="fill:#d40000;stroke:#000000;stroke-width:2.06726456;stroke-opacity:1"
       id="rect296"
       width="15.077217"
       height="32.382504"
       x="51.011909"
       y="201.66385" />
    <rect
       style="fill:#d40000;stroke:#000000;stroke-width:2.06726456;stroke-opacity:1"
       id="rect298"
       width="15.427888"
       height="30.314959"
       x="66.089104"
       y="34.666992" />
    <rect
       style="fill:#d40000;stroke:#000000;stroke-width:2.06726456;stroke-opacity:1"
       id="rect300"
       width="15.778526"
       height="32.647087"
       x="144.98143"
       y="64.981842" />
    <rect
       style="fill:#d40000;stroke:#000000;stroke-width:2.06726456;stroke-opacity:1"
       id="rect302"
       width="15.778445"
       height="30.314959"
       x="129.20297"
       y="34.666992" />
    <rect
       style="fill:#d40000;stroke:#000000;stroke-width:2.06726456;stroke-opacity:1"
       id="rect304"
       width="15.778526"
       height="32.762646"
       x="144.98143"
       y="201.28357" />
    <rect
       style="fill:#d40000;stroke:#000000;stroke-width:2.06726456;stroke-opacity:1"
       id="rect306"
       width="15.483825"
       height="31.480839"
       x="66.089104"
       y="234.0463" />
    <g
       id="g311"
       transform="matrix(5.2476323,0,0,11.63332,-332.93131,-839.76654)">
      <rect
         y="92.304939"
         x="88.055389"
         height="2.7060928"
         width="3.0166931"
         id="rect308"
         style="fill:#d40000;stroke:#000000;stroke-width:0.26458332;stroke-opacity:1;image-rendering:auto" />
    </g>
    <path
       style="fill:#e6e6e6;stroke:#000000;stroke-width:0.49757037;stroke-opacity:1"
       d="m 35.962961,149.07074 v -16.10465 h 7.010071 7.010071 v 16.10465 16.10466 h -7.010071 -7.010071 z"
       id="path4360"
       inkscape:connector-curvature="0" />
    <path
       style="fill:#e6e6e6;stroke:#000000;stroke-width:0.49757037;stroke-opacity:1"
       d="m 51.827859,149.07074 v -16.10465 h 6.641119 6.641123 v 16.10465 16.10466 h -6.641123 -6.641119 z"
       id="path4362"
       inkscape:connector-curvature="0" />
    <path
       style="fill:#e6e6e6;stroke:#000000;stroke-width:0.49757037;stroke-opacity:1"
       d="M 51.827859,114.51284 V 99.414729 h 6.641119 6.641123 v 15.098111 15.09812 h -6.641123 -6.641119 z"
       id="path4364"
       inkscape:connector-curvature="0" />
    <path
       style="fill:#e6e6e6;stroke:#000000;stroke-width:0.49757037;stroke-opacity:1"
       d="M 51.827859,81.29699 V 66.534392 h 6.641119 6.641123 V 81.29699 96.059589 h -6.641123 -6.641119 z"
       id="path4366"
       inkscape:connector-curvature="0" />
    <path
       style="fill:#e6e6e6;stroke:#000000;stroke-width:0.49757037;stroke-opacity:1"
       d="M 66.954851,81.29699 V 66.534392 h 6.825602 6.825595 V 81.29699 96.059589 h -6.825595 -6.825602 z"
       id="path4368"
       inkscape:connector-curvature="0" />
    <path
       style="fill:#e6e6e6;stroke:#000000;stroke-width:0.49757037;stroke-opacity:1"
       d="M 66.954851,114.17733 V 99.414729 h 6.825602 6.825595 v 14.762601 14.7626 h -6.825595 -6.825602 z"
       id="path4370"
       inkscape:connector-curvature="0" />
    <path
       style="fill:#e6e6e6;stroke:#000000;stroke-width:0.49757037;stroke-opacity:1"
       d="M 66.954851,49.75871 V 36.338166 h 6.825602 6.825595 V 49.75871 63.179256 h -6.825595 -6.825602 z"
       id="path4372"
       inkscape:connector-curvature="0" />
    <path
       style="fill:#e6e6e6;stroke:#000000;stroke-width:0.49757037;stroke-opacity:1"
       d="M 82.450799,49.75871 V 36.338166 h 7.194548 7.19455 V 49.75871 63.179256 h -7.19455 -7.194548 z"
       id="path4374"
       inkscape:connector-curvature="0" />
    <path
       style="fill:#e6e6e6;stroke:#000000;stroke-width:0.49757037;stroke-opacity:1"
       d="M 82.450799,81.29699 V 66.534392 h 7.194548 7.19455 V 81.29699 96.059589 h -7.19455 -7.194548 z"
       id="path4376"
       inkscape:connector-curvature="0" />
    <path
       style="fill:#e6e6e6;stroke:#000000;stroke-width:0.49757037;stroke-opacity:1"
       d="M 82.450799,114.17733 V 99.414729 h 7.194548 7.19455 v 14.762601 14.7626 h -7.19455 -7.194548 z"
       id="path4378"
       inkscape:connector-curvature="0" />
    <path
       style="fill:#e6e6e6;stroke:#000000;stroke-width:0.49757037;stroke-opacity:1"
       d="M 114.1806,114.17733 V 99.414729 h 7.01007 7.01008 v 14.762601 14.7626 h -7.01008 -7.01007 z"
       id="path4380"
       inkscape:connector-curvature="0" />
    <path
       style="fill:#e6e6e6;stroke:#000000;stroke-width:0.49757037;stroke-opacity:1"
       d="M 98.68464,81.29699 V 66.534392 h 6.82561 6.8256 V 81.29699 96.059589 h -6.8256 -6.82561 z"
       id="path4382"
       inkscape:connector-curvature="0" />
    <path
       style="fill:#e6e6e6;stroke:#000000;stroke-width:0.49757037;stroke-opacity:1"
       d="M 98.68464,114.17733 V 99.414729 h 6.82561 6.8256 v 14.762601 14.7626 h -6.8256 -6.82561 z"
       id="path4384"
       inkscape:connector-curvature="0" />
    <path
       style="fill:#e6e6e6;stroke:#000000;stroke-width:0.49757037;stroke-opacity:1"
       d="M 98.68464,49.75871 V 36.338166 h 6.82561 6.8256 V 49.75871 63.179256 h -6.8256 -6.82561 z"
       id="path4386"
       inkscape:connector-curvature="0" />
    <path
       style="fill:#e6e6e6;stroke:#000000;stroke-width:0.49757037;stroke-opacity:1"
       d="M 98.68464,18.541137 V 4.0992437 l 6.91784,0.182565 6.91784,0.1825608 0.0996,14.2593315 0.0996,14.259327 h -7.01741 -7.01742 z"
       id="path4388"
       inkscape:connector-curvature="0" />
    <path
       style="fill:#e6e6e6;stroke:#000000;stroke-width:0.49757037;stroke-opacity:1"
       d="M 114.1806,49.75871 V 36.338166 h 7.01007 7.01008 V 49.75871 63.179256 h -7.01008 -7.01007 z"
       id="path4390"
       inkscape:connector-curvature="0" />
    <path
       style="fill:#e6e6e6;stroke:#000000;stroke-width:0.49757037;stroke-opacity:1"
       d="M 114.1806,81.29699 V 66.534392 h 7.01007 7.01008 V 81.29699 96.059589 h -7.01008 -7.01007 z"
       id="path4392"
       inkscape:connector-curvature="0" />
    <path
       style="fill:#e6e6e6;stroke:#000000;stroke-width:0.49757037;stroke-opacity:1"
       d="M 130.04549,81.29699 V 66.534392 h 7.01009 7.01006 V 81.29699 96.059589 h -7.01006 -7.01009 z"
       id="path4394"
       inkscape:connector-curvature="0" />
    <path
       style="fill:#e6e6e6;stroke:#000000;stroke-width:0.49757037;stroke-opacity:1"
       d="M 130.04549,49.75871 V 36.338166 h 7.01009 7.01006 V 49.75871 63.179256 h -7.01006 -7.01009 z"
       id="path4396"
       inkscape:connector-curvature="0" />
    <path
       style="fill:#e6e6e6;stroke:#000000;stroke-width:0.49757037;stroke-opacity:1"
       d="M 145.91041,81.29699 V 66.534392 h 7.01006 7.01007 V 81.29699 96.059589 h -7.01007 -7.01006 z"
       id="path4398"
       inkscape:connector-curvature="0" />
    <path
       style="fill:#e6e6e6;stroke:#000000;stroke-width:0.49757037;stroke-opacity:1"
       d="M 145.91041,114.51284 V 99.414729 h 7.01006 7.01007 v 15.098111 15.09812 h -7.01007 -7.01006 z"
       id="path4400"
       inkscape:connector-curvature="0" />
    <path
       style="fill:#e6e6e6;stroke:#000000;stroke-width:0.49757037;stroke-opacity:1"
       d="M 130.04549,114.17733 V 99.414729 h 7.01009 7.01006 v 14.762601 14.7626 h -7.01006 -7.01009 z"
       id="path4402"
       inkscape:connector-curvature="0" />
    <path
       style="fill:#e6e6e6;stroke:#000000;stroke-width:0.49757037;stroke-opacity:1"
       d="m 130.04549,149.07074 v -16.10465 h 7.01009 7.01006 v 16.10465 16.10466 h -7.01006 -7.01009 z"
       id="path4404"
       inkscape:connector-curvature="0" />
    <path
       style="fill:#e6e6e6;stroke:#000000;stroke-width:0.49757037;stroke-opacity:1"
       d="m 145.91041,149.07074 v -16.10465 h 7.01006 7.01007 v 16.10465 16.10466 h -7.01007 -7.01006 z"
       id="path4406"
       inkscape:connector-curvature="0" />
    <path
       style="fill:#e6e6e6;stroke:#000000;stroke-width:0.49757037;stroke-opacity:1"
       d="m 161.7753,149.07074 v -16.10465 h 6.82559 6.82561 v 16.10465 16.10466 h -6.82561 -6.82559 z"
       id="path4408"
       inkscape:connector-curvature="0" />
    <path
       style="fill:#e6e6e6;stroke:#000000;stroke-width:0.49757037;stroke-opacity:1"
       d="m 130.04549,183.96416 v -15.43363 h 7.01009 7.01006 v 15.43363 15.43363 h -7.01006 -7.01009 z"
       id="path4410"
       inkscape:connector-curvature="0" />
    <path
       style="fill:#e6e6e6;stroke:#000000;stroke-width:0.49757037;stroke-opacity:1"
       d="m 145.91041,183.96416 v -15.43363 h 7.01006 7.01007 v 15.43363 15.43363 h -7.01007 -7.01006 z"
       id="path4412"
       inkscape:connector-curvature="0" />
    <path
       style="fill:#e6e6e6;stroke:#000000;stroke-width:0.49757037;stroke-opacity:1"
       d="m 145.91041,217.51552 v -14.76258 h 7.01006 7.01007 v 14.76258 14.7626 h -7.01007 -7.01006 z"
       id="path4414"
       inkscape:connector-curvature="0" />
    <path
       style="fill:#e6e6e6;stroke:#000000;stroke-width:0.49757037;stroke-opacity:1"
       d="m 130.04549,217.51552 v -14.76258 h 7.01009 7.01006 v 14.76258 14.7626 h -7.01006 -7.01009 z"
       id="path4416"
       inkscape:connector-curvature="0" />
    <path
       style="fill:#e6e6e6;stroke:#000000;stroke-width:0.49757037;stroke-opacity:1"
       d="m 114.1806,217.51552 v -14.76258 h 7.01007 7.01008 v 14.76258 14.7626 h -7.01008 -7.01007 z"
       id="path4418"
       inkscape:connector-curvature="0" />
    <path
       style="fill:#e6e6e6;stroke:#000000;stroke-width:0.49757037;stroke-opacity:1"
       d="m 114.54955,183.96416 v -15.43363 h 6.8256 6.8256 v 15.43363 15.43363 h -6.8256 -6.8256 z"
       id="path4420"
       inkscape:connector-curvature="0" />
    <path
       style="fill:#e6e6e6;stroke:#000000;stroke-width:0.49757037;stroke-opacity:1"
       d="m 114.26639,148.56748 0.0987,-16.60792 6.91783,-0.18257 6.91784,-0.18257 v 16.79049 16.79049 h -7.01652 -7.01652 z"
       id="path4422"
       inkscape:connector-curvature="0" />
    <path
       style="fill:#e6e6e6;stroke:#000000;stroke-width:0.49757037;stroke-opacity:1"
       d="m 98.68464,148.39972 v -16.77567 h 6.82561 6.8256 v 16.77567 16.77568 h -6.8256 -6.82561 z"
       id="path4424"
       inkscape:connector-curvature="0" />
    <path
       style="fill:#e6e6e6;stroke:#000000;stroke-width:0.49757037;stroke-opacity:1"
       d="m 98.68464,184.29967 v -15.76914 h 6.82561 6.8256 v 15.76914 15.76914 h -6.8256 -6.82561 z"
       id="path4426"
       inkscape:connector-curvature="0" />
    <path
       style="fill:#e6e6e6;stroke:#000000;stroke-width:0.49757037;stroke-opacity:1"
       d="m 82.450799,148.39972 v -16.77567 h 7.194548 7.19455 v 16.77567 16.77568 h -7.19455 -7.194548 z"
       id="path4430"
       inkscape:connector-curvature="0" />
    <path
       style="fill:#e6e6e6;stroke:#000000;stroke-width:0.49757037;stroke-opacity:1"
       d="m 82.450799,217.85104 v -14.4271 h 7.194548 7.19455 v 14.4271 14.42708 h -7.19455 -7.194548 z"
       id="path4432"
       inkscape:connector-curvature="0" />
    <path
       style="fill:#e6e6e6;stroke:#000000;stroke-width:0.49757037;stroke-opacity:1"
       d="m 66.954851,184.29967 v -15.76914 h 6.825602 6.825595 v 15.76914 15.76914 h -6.825595 -6.825602 z"
       id="path4434"
       inkscape:connector-curvature="0" />
    <path
       style="fill:#e6e6e6;stroke:#000000;stroke-width:0.49757037;stroke-opacity:1"
       d="m 66.954851,148.39972 v -16.77567 h 6.825602 6.825595 v 16.77567 16.77568 h -6.825595 -6.825602 z"
       id="path4436"
       inkscape:connector-curvature="0" />
    <path
       style="fill:#e6e6e6;stroke:#000000;stroke-width:0.49757037;stroke-opacity:1"
       d="m 82.450799,184.29967 v -15.76914 h 7.010072 7.010072 v 15.76914 15.76914 h -7.010072 -7.010072 z"
       id="path4438"
       inkscape:connector-curvature="0" />
    <path
       style="fill:#e6e6e6;stroke:#000000;stroke-width:0.49757037;stroke-opacity:1"
       d="m 65.269212,184.29967 c 1.82e-4,-8.85754 0.05276,-12.3883 0.116662,-7.84609 0.06394,4.54221 0.06375,11.78931 -3.58e-4,16.10467 -0.06415,4.31535 -0.116466,0.59899 -0.116226,-8.25858 z"
       id="path4440"
       inkscape:connector-curvature="0" />
    <path
       style="fill:#e6e6e6;stroke:#000000;stroke-width:0.49757037;stroke-opacity:1"
       d="m 51.827859,217.85104 v -14.4271 h 6.641119 6.641123 v 14.4271 14.42708 h -6.641123 -6.641119 z"
       id="path4442"
       inkscape:connector-curvature="0" />
    <path
       style="fill:#e6e6e6;stroke:#000000;stroke-width:0.49757037;stroke-opacity:1"
       d="m 51.827859,184.29967 v -15.76914 h 6.641119 6.641123 v 15.76914 15.76914 h -6.641123 -6.641119 z"
       id="path4444"
       inkscape:connector-curvature="0" />
    <path
       style="fill:#e6e6e6;stroke:#000000;stroke-width:0.49757037;stroke-opacity:1"
       d="m 66.954851,217.85104 v -14.4271 h 6.825602 6.825595 v 14.4271 14.42708 h -6.825595 -6.825602 z"
       id="path4446"
       inkscape:connector-curvature="0" />
    <path
       style="fill:#e6e6e6;stroke:#000000;stroke-width:0.49757037;stroke-opacity:1"
       d="m 66.954851,249.72484 v -14.09158 h 6.825602 6.825595 v 14.09158 14.09158 h -6.825595 -6.825602 z"
       id="path4448"
       inkscape:connector-curvature="0" />
    <path
       style="fill:#e6e6e6;stroke:#000000;stroke-width:0.49757037;stroke-opacity:1"
       d="m 82.450799,249.72484 v -14.09158 h 7.194548 7.19455 v 14.09158 14.09158 h -7.19455 -7.194548 z"
       id="path4450"
       inkscape:connector-curvature="0" />
    <path
       style="fill:#e6e6e6;stroke:#000000;stroke-width:0.49757037;stroke-opacity:1"
       d="m 98.68464,249.72484 v -14.09158 h 6.82561 6.8256 v 14.09158 14.09158 h -6.8256 -6.82561 z"
       id="path4452"
       inkscape:connector-curvature="0" />
    <path
       style="fill:#e6e6e6;stroke:#000000;stroke-width:0.49757037;stroke-opacity:1"
       d="m 98.68464,217.85104 v -14.4271 h 6.82561 6.8256 v 14.4271 14.42708 h -6.8256 -6.82561 z"
       id="path4454"
       inkscape:connector-curvature="0" />
    <path
       style="fill:#e6e6e6;stroke:#000000;stroke-width:0.49757037;stroke-opacity:1"
       d="m 98.68464,280.5921 v -13.42054 h 7.01008 7.01008 v 13.42054 13.42054 h -7.01008 -7.01008 z"
       id="path4456"
       inkscape:connector-curvature="0" />
    <path
       style="fill:#e6e6e6;stroke:#000000;stroke-width:0.49757037;stroke-opacity:1"
       d="m 114.1806,249.72484 v -14.09158 h 7.01007 7.01008 v 14.09158 14.09158 h -7.01008 -7.01007 z"
       id="path4458"
       inkscape:connector-curvature="0" />
    <path
       style="fill:#e6e6e6;stroke:#000000;stroke-width:0.49757037;stroke-opacity:1"
       d="m 130.04549,249.72484 v -14.09158 h 7.01009 7.01006 v 14.09158 14.09158 h -7.01006 -7.01009 z"
       id="path4460"
       inkscape:connector-curvature="0" />
  </g>
</svg>
