<?xml version="1.0" encoding="UTF-8" standalone="no"?>
<!-- Created with Inkscape (http://www.inkscape.org/) -->

<svg
   xmlns:dc="http://purl.org/dc/elements/1.1/"
   xmlns:cc="http://creativecommons.org/ns#"
   xmlns:rdf="http://www.w3.org/1999/02/22-rdf-syntax-ns#"
   xmlns:svg="http://www.w3.org/2000/svg"
   xmlns="http://www.w3.org/2000/svg"
   xmlns:sodipodi="http://sodipodi.sourceforge.net/DTD/sodipodi-0.dtd"
   xmlns:inkscape="http://www.inkscape.org/namespaces/inkscape"
   width="210mm"
   height="297mm"
   viewBox="0 0 210 297"
   version="1.1"
   id="svg197"
   inkscape:version="0.92.4 (5da689c313, 2019-01-14)"
   sodipodi:docname="putellipsoid.svg">
  <defs
     id="defs191" />
  <sodipodi:namedview
     id="base"
     pagecolor="#ffffff"
     bordercolor="#666666"
     borderopacity="1.0"
     inkscape:pageopacity="0.0"
     inkscape:pageshadow="2"
     inkscape:zoom="0.24748737"
     inkscape:cx="331.25774"
     inkscape:cy="220.13271"
     inkscape:document-units="mm"
     inkscape:current-layer="layer1"
     showgrid="false"
     inkscape:window-width="1366"
     inkscape:window-height="705"
     inkscape:window-x="-8"
     inkscape:window-y="-8"
     inkscape:window-maximized="1" />
  <metadata
     id="metadata194">
    <rdf:RDF>
      <cc:Work
         rdf:about="">
        <dc:format>image/svg+xml</dc:format>
        <dc:type
           rdf:resource="http://purl.org/dc/dcmitype/StillImage" />
        <dc:title></dc:title>
      </cc:Work>
    </rdf:RDF>
  </metadata>
  <g
     inkscape:label="Camada 1"
     inkscape:groupmode="layer"
     id="layer1">
    <rect
       style="fill:#808000;stroke:#000000;stroke-width:2.0674696;stroke-opacity:1"
       id="rect199"
       width="15.781617"
       height="36.53347"
       x="97.65844"
       y="130.27585" />
    <rect
       style="fill:#808000;stroke:#000000;stroke-width:2.0674696;stroke-opacity:1"
       id="rect203"
       width="15.78163"
       height="36.533546"
       x="113.44003"
       y="130.27585" />
    <rect
       style="fill:#808000;stroke:#000000;stroke-width:2.0674696;stroke-opacity:1"
       id="rect205"
       width="16.132307"
       height="36.533546"
       x="81.526138"
       y="130.27585" />
    <rect
       style="fill:#808000;stroke:#000000;stroke-width:2.0674696;stroke-opacity:1"
       id="rect207"
       width="15.78163"
       height="32.646988"
       x="97.65844"
       y="97.629044" />
    <rect
       style="fill:#808000;stroke:#000000;stroke-width:2.23391247;stroke-opacity:1"
       id="rect209"
       width="15.669794"
       height="34.730892"
       x="97.714363"
       y="166.9332" />
    <rect
       style="fill:#808000;stroke:#000000;stroke-width:2.0674696;stroke-opacity:1"
       id="rect211"
       width="15.781619"
       height="32.646908"
       x="113.44003"
       y="97.629044" />
    <rect
       style="fill:#808000;stroke:#000000;stroke-width:2.22247386;stroke-opacity:1"
       id="rect213"
       width="15.677505"
       height="34.359192"
       x="113.49212"
       y="166.92465" />
    <rect
       style="fill:#808000;stroke:#000000;stroke-width:2.23407412;stroke-opacity:1"
       id="rect215"
       width="16.020418"
       height="34.730675"
       x="81.582077"
       y="166.93336" />
    <rect
       style="fill:#808000;stroke:#000000;stroke-width:2.0674696;stroke-opacity:1"
       id="rect217"
       width="16.132286"
       height="32.646908"
       x="81.526138"
       y="97.629044"
       ry="0" />
    <rect
       style="fill:#808000;stroke:#000000;stroke-width:2.0674696;stroke-opacity:1"
       id="rect219"
       width="15.781606"
       height="32.647015"
       x="97.65844"
       y="64.981842" />
    <rect
       style="fill:#808000;stroke:#000000;stroke-width:2.0674696;stroke-opacity:1"
       id="rect227"
       width="15.781626"
       height="35.756241"
       x="129.22162"
       y="131.05318" />
    <rect
       style="fill:#808000;stroke:#000000;stroke-width:2.0674696;stroke-opacity:1"
       id="rect229"
       width="15.430933"
       height="36.533546"
       x="66.095222"
       y="130.27585" />
    <rect
       style="fill:#808000;stroke:#000000;stroke-width:2.0674696;stroke-opacity:1"
       id="rect231"
       width="15.725704"
       height="32.38237"
       x="97.65844"
       y="201.66403" />
    <rect
       style="fill:#808000;stroke:#000000;stroke-width:2.0674696;stroke-opacity:1"
       id="rect233"
       width="15.430948"
       height="32.646908"
       x="66.095222"
       y="97.629044" />
    <rect
       style="fill:#808000;stroke:#000000;stroke-width:2.0674696;stroke-opacity:1"
       id="rect235"
       width="15.781626"
       height="32.646988"
       x="129.22162"
       y="97.629044" />
    <rect
       style="fill:#808000;stroke:#000000;stroke-width:2.0674696;stroke-opacity:1"
       id="rect237"
       width="15.833636"
       height="34.474552"
       x="129.16959"
       y="166.80931" />
    <rect
       style="fill:#808000;stroke:#000000;stroke-width:2.0674696;stroke-opacity:1"
       id="rect239"
       width="15.486896"
       height="34.85461"
       x="66.095222"
       y="166.80939" />
    <rect
       style="fill:#808000;stroke:#000000;stroke-width:2.0674696;stroke-opacity:1"
       id="rect241"
       width="16.132286"
       height="32.647087"
       x="81.526138"
       y="64.981842" />
    <rect
       style="fill:#808000;stroke:#000000;stroke-width:2.0674696;stroke-opacity:1"
       id="rect243"
       width="15.781619"
       height="32.647087"
       x="113.44003"
       y="64.981842" />
    <rect
       style="fill:#808000;stroke:#000000;stroke-width:2.0674696;stroke-opacity:1"
       id="rect245"
       width="15.785461"
       height="32.762463"
       x="113.38416"
       y="201.28392" />
    <rect
       style="fill:#808000;stroke:#000000;stroke-width:2.0674696;stroke-opacity:1"
       id="rect247"
       width="16.076344"
       height="32.382332"
       x="81.582077"
       y="201.66403" />
    <rect
       style="fill:#808000;stroke:#000000;stroke-width:2.0674696;stroke-opacity:1"
       id="rect249"
       width="15.78163"
       height="30.314936"
       x="97.65844"
       y="34.666992" />
    <rect
       style="fill:#808000;stroke:#000000;stroke-width:2.0674696;stroke-opacity:1"
       id="rect253"
       width="15.781661"
       height="35.756241"
       x="145.00319"
       y="131.05318" />
    <rect
       style="fill:#808000;stroke:#000000;stroke-width:2.0674696;stroke-opacity:1"
       id="rect255"
       width="15.78163"
       height="31.481007"
       x="97.65844"
       y="234.0463" />
    <rect
       style="fill:#808000;stroke:#000000;stroke-width:2.0674696;stroke-opacity:1"
       id="rect257"
       width="15.080194"
       height="35.756329"
       x="51.015038"
       y="131.05318" />
    <rect
       style="fill:#808000;stroke:#000000;stroke-width:2.0674696;stroke-opacity:1"
       id="rect259"
       width="15.430948"
       height="32.647087"
       x="66.095222"
       y="64.981842" />
    <rect
       style="fill:#808000;stroke:#000000;stroke-width:2.0674696;stroke-opacity:1"
       id="rect261"
       width="15.781626"
       height="32.647015"
       x="129.22162"
       y="64.981842" />
    <rect
       style="fill:#808000;stroke:#000000;stroke-width:2.0674696;stroke-opacity:1"
       id="rect263"
       width="15.833636"
       height="32.762554"
       x="129.16959"
       y="201.2838" />
    <rect
       style="fill:#808000;stroke:#000000;stroke-width:2.0674696;stroke-opacity:1"
       id="rect265"
       width="15.486896"
       height="32.38242"
       x="66.095222"
       y="201.664" />
    <rect
       style="fill:#808000;stroke:#000000;stroke-width:2.0674696;stroke-opacity:1"
       id="rect267"
       width="15.781655"
       height="34.474468"
       x="145.00319"
       y="166.80931" />
    <rect
       style="fill:#808000;stroke:#000000;stroke-width:2.0674696;stroke-opacity:1"
       id="rect269"
       width="15.080208"
       height="34.854519"
       x="51.015038"
       y="166.80939" />
    <rect
       style="fill:#808000;stroke:#000000;stroke-width:2.0674696;stroke-opacity:1"
       id="rect271"
       width="16.132286"
       height="30.314959"
       x="81.526138"
       y="34.666992" />
    <rect
       style="fill:#808000;stroke:#000000;stroke-width:2.0674696;stroke-opacity:1"
       id="rect273"
       width="15.781619"
       height="30.314959"
       x="113.44003"
       y="34.666992" />
    <rect
       style="fill:#808000;stroke:#000000;stroke-width:2.0674696;stroke-opacity:1"
       id="rect275"
       width="15.781655"
       height="33.424141"
       x="145.00319"
       y="97.629044" />
    <rect
       style="fill:#808000;stroke:#000000;stroke-width:2.0674696;stroke-opacity:1"
       id="rect277"
       width="15.729561"
       height="31.480934"
       x="113.44003"
       y="234.0463" />
    <rect
       style="fill:#808000;stroke:#000000;stroke-width:2.0674696;stroke-opacity:1"
       id="rect279"
       width="16.076344"
       height="31.480934"
       x="81.582077"
       y="234.0463" />
    <rect
       style="fill:#808000;stroke:#000000;stroke-width:2.0674696;stroke-opacity:1"
       id="rect281"
       width="15.080208"
       height="33.424141"
       x="51.015038"
       y="97.629044" />
    <rect
       style="fill:#808000;stroke:#000000;stroke-width:2.0674696;stroke-opacity:1"
       id="rect283"
       width="15.78163"
       height="31.869604"
       x="97.65844"
       y="2.7973447" />
    <rect
       style="fill:#808000;stroke:#000000;stroke-width:2.0674696;stroke-opacity:1"
       id="rect285"
       width="15.430921"
       height="35.756191"
       x="160.78491"
       y="131.05318" />
    <rect
       style="fill:#808000;stroke:#000000;stroke-width:2.0674696;stroke-opacity:1"
       id="rect287"
       width="15.781606"
       height="30.315094"
       x="97.65844"
       y="265.5274" />
    <rect
       style="fill:#808000;stroke:#000000;stroke-width:2.0674696;stroke-opacity:1"
       id="rect292"
       width="15.781608"
       height="35.756191"
       x="35.233376"
       y="131.05318" />
    <rect
       style="fill:#808000;stroke:#000000;stroke-width:2.0674696;stroke-opacity:1"
       id="rect294"
       width="15.080208"
       height="32.647087"
       x="51.015038"
       y="64.981842" />
    <rect
       style="fill:#808000;stroke:#000000;stroke-width:2.0674696;stroke-opacity:1"
       id="rect296"
       width="15.080208"
       height="32.382504"
       x="51.015038"
       y="201.66385" />
    <rect
       style="fill:#808000;stroke:#000000;stroke-width:2.0674696;stroke-opacity:1"
       id="rect298"
       width="15.430948"
       height="30.314959"
       x="66.095222"
       y="34.666992" />
    <rect
       style="fill:#808000;stroke:#000000;stroke-width:2.0674696;stroke-opacity:1"
       id="rect300"
       width="15.781655"
       height="32.647087"
       x="145.00319"
       y="64.981842" />
    <rect
       style="fill:#808000;stroke:#000000;stroke-width:2.0674696;stroke-opacity:1"
       id="rect302"
       width="15.781574"
       height="30.314959"
       x="129.22162"
       y="34.666992" />
    <rect
       style="fill:#808000;stroke:#000000;stroke-width:2.0674696;stroke-opacity:1"
       id="rect304"
       width="15.781655"
       height="32.762646"
       x="145.00319"
       y="201.28357" />
    <rect
       style="fill:#808000;stroke:#000000;stroke-width:2.0674696;stroke-opacity:1"
       id="rect306"
       width="15.486896"
       height="31.480839"
       x="66.095222"
       y="234.0463" />
    <g
       id="g311"
       transform="matrix(5.248673,0,0,11.63332,-333.00433,-839.76654)"
       style="fill:#808000">
      <rect
         y="92.304939"
         x="88.055389"
         height="2.7060928"
         width="3.0166931"
         id="rect308"
         style="fill:#808000;stroke:#000000;stroke-width:0.26458332;stroke-opacity:1;image-rendering:auto" />
    </g>
    <path
       style="fill:#808000;stroke:#000000;stroke-width:0.49761969;stroke-opacity:1"
       d="m 35.963106,149.07074 v -16.10465 h 7.011461 7.011462 v 16.10465 16.10466 h -7.011462 -7.011461 z"
       id="path4360"
       inkscape:connector-curvature="0" />
    <path
       style="fill:#808000;stroke:#000000;stroke-width:0.49761969;stroke-opacity:1"
       d="m 51.83115,149.07074 v -16.10465 h 6.642436 6.642441 v 16.10465 16.10466 H 58.473586 51.83115 Z"
       id="path4362"
       inkscape:connector-curvature="0" />
    <path
       style="fill:#808000;stroke:#000000;stroke-width:0.49761969;stroke-opacity:1"
       d="M 51.83115,114.51284 V 99.414729 h 6.642436 6.642441 v 15.098111 15.09812 H 58.473586 51.83115 Z"
       id="path4364"
       inkscape:connector-curvature="0" />
    <path
       style="fill:#808000;stroke:#000000;stroke-width:0.49761969;stroke-opacity:1"
       d="M 51.83115,81.29699 V 66.534392 h 6.642436 6.642441 V 81.29699 96.059589 H 58.473586 51.83115 Z"
       id="path4366"
       inkscape:connector-curvature="0" />
    <path
       style="fill:#808000;stroke:#000000;stroke-width:0.49761969;stroke-opacity:1"
       d="M 66.961142,81.29699 V 66.534392 h 6.826956 6.826948 V 81.29699 96.059589 h -6.826948 -6.826956 z"
       id="path4368"
       inkscape:connector-curvature="0" />
    <path
       style="fill:#808000;stroke:#000000;stroke-width:0.49761969;stroke-opacity:1"
       d="M 66.961142,114.17733 V 99.414729 h 6.826956 6.826948 v 14.762601 14.7626 h -6.826948 -6.826956 z"
       id="path4370"
       inkscape:connector-curvature="0" />
    <path
       style="fill:#808000;stroke:#000000;stroke-width:0.49761969;stroke-opacity:1"
       d="M 66.961142,49.75871 V 36.338166 h 6.826956 6.826948 V 49.75871 63.179256 h -6.826948 -6.826956 z"
       id="path4372"
       inkscape:connector-curvature="0" />
    <path
       style="fill:#808000;stroke:#000000;stroke-width:0.49761969;stroke-opacity:1"
       d="M 82.460164,49.75871 V 36.338166 h 7.195974 7.195977 V 49.75871 63.179256 h -7.195977 -7.195974 z"
       id="path4374"
       inkscape:connector-curvature="0" />
    <path
       style="fill:#808000;stroke:#000000;stroke-width:0.49761969;stroke-opacity:1"
       d="M 82.460164,81.29699 V 66.534392 h 7.195974 7.195977 V 81.29699 96.059589 h -7.195977 -7.195974 z"
       id="path4376"
       inkscape:connector-curvature="0" />
    <path
       style="fill:#808000;stroke:#000000;stroke-width:0.49761969;stroke-opacity:1"
       d="M 82.460164,114.17733 V 99.414729 h 7.195974 7.195977 v 14.762601 14.7626 h -7.195977 -7.195974 z"
       id="path4378"
       inkscape:connector-curvature="0" />
    <path
       style="fill:#808000;stroke:#000000;stroke-width:0.49761969;stroke-opacity:1"
       d="M 114.19625,114.17733 V 99.414729 h 7.01147 7.01146 v 14.762601 14.7626 h -7.01146 -7.01147 z"
       id="path4380"
       inkscape:connector-curvature="0" />
    <path
       style="fill:#808000;stroke:#000000;stroke-width:0.49761969;stroke-opacity:1"
       d="M 98.697224,81.29699 V 66.534392 h 6.826966 6.82695 V 81.29699 96.059589 h -6.82695 -6.826966 z"
       id="path4382"
       inkscape:connector-curvature="0" />
    <path
       style="fill:#808000;stroke:#000000;stroke-width:0.49761969;stroke-opacity:1"
       d="M 98.697224,114.17733 V 99.414729 h 6.826966 6.82695 v 14.762601 14.7626 h -6.82695 -6.826966 z"
       id="path4384"
       inkscape:connector-curvature="0" />
    <path
       style="fill:#808000;stroke:#000000;stroke-width:0.49761969;stroke-opacity:1"
       d="M 98.697224,49.75871 V 36.338166 h 6.826966 6.82695 V 49.75871 63.179256 h -6.82695 -6.826966 z"
       id="path4386"
       inkscape:connector-curvature="0" />
    <path
       style="fill:#808000;stroke:#000000;stroke-width:0.49761969;stroke-opacity:1"
       d="M 98.697224,18.541137 V 4.0992437 l 6.919216,0.182565 6.91921,0.1825608 0.0996,14.2593315 0.0996,14.259327 h -7.01881 -7.018806 z"
       id="path4388"
       inkscape:connector-curvature="0" />
    <path
       style="fill:#808000;stroke:#000000;stroke-width:0.49761969;stroke-opacity:1"
       d="M 114.19625,49.75871 V 36.338166 h 7.01147 7.01146 V 49.75871 63.179256 h -7.01146 -7.01147 z"
       id="path4390"
       inkscape:connector-curvature="0" />
    <path
       style="fill:#808000;stroke:#000000;stroke-width:0.49761969;stroke-opacity:1"
       d="M 114.19625,81.29699 V 66.534392 h 7.01147 7.01146 V 81.29699 96.059589 h -7.01146 -7.01147 z"
       id="path4392"
       inkscape:connector-curvature="0" />
    <path
       style="fill:#808000;stroke:#000000;stroke-width:0.49761969;stroke-opacity:1"
       d="M 130.0643,81.29699 V 66.534392 h 7.01147 7.01146 V 81.29699 96.059589 h -7.01146 -7.01147 z"
       id="path4394"
       inkscape:connector-curvature="0" />
    <path
       style="fill:#808000;stroke:#000000;stroke-width:0.49761969;stroke-opacity:1"
       d="M 130.0643,49.75871 V 36.338166 h 7.01147 7.01146 V 49.75871 63.179256 h -7.01146 -7.01147 z"
       id="path4396"
       inkscape:connector-curvature="0" />
    <path
       style="fill:#808000;stroke:#000000;stroke-width:0.49761969;stroke-opacity:1"
       d="M 145.93236,81.29699 V 66.534392 h 7.01146 7.01145 V 81.29699 96.059589 h -7.01145 -7.01146 z"
       id="path4398"
       inkscape:connector-curvature="0" />
    <path
       style="fill:#808000;stroke:#000000;stroke-width:0.49761969;stroke-opacity:1"
       d="M 145.93236,114.51284 V 99.414729 h 7.01146 7.01145 v 15.098111 15.09812 h -7.01145 -7.01146 z"
       id="path4400"
       inkscape:connector-curvature="0" />
    <path
       style="fill:#808000;stroke:#000000;stroke-width:0.49761969;stroke-opacity:1"
       d="M 130.0643,114.17733 V 99.414729 h 7.01147 7.01146 v 14.762601 14.7626 h -7.01146 -7.01147 z"
       id="path4402"
       inkscape:connector-curvature="0" />
    <path
       style="fill:#808000;stroke:#000000;stroke-width:0.49761969;stroke-opacity:1"
       d="m 130.0643,149.07074 v -16.10465 h 7.01147 7.01146 v 16.10465 16.10466 h -7.01146 -7.01147 z"
       id="path4404"
       inkscape:connector-curvature="0" />
    <path
       style="fill:#808000;stroke:#000000;stroke-width:0.49761969;stroke-opacity:1"
       d="m 145.93236,149.07074 v -16.10465 h 7.01146 7.01145 v 16.10465 16.10466 h -7.01145 -7.01146 z"
       id="path4406"
       inkscape:connector-curvature="0" />
    <path
       style="fill:#808000;stroke:#000000;stroke-width:0.49761969;stroke-opacity:1"
       d="m 161.80039,149.07074 v -16.10465 h 6.82695 6.82696 v 16.10465 16.10466 h -6.82696 -6.82695 z"
       id="path4408"
       inkscape:connector-curvature="0" />
    <path
       style="fill:#808000;stroke:#000000;stroke-width:0.49761969;stroke-opacity:1"
       d="m 130.0643,183.96416 v -15.43363 h 7.01147 7.01146 v 15.43363 15.43363 h -7.01146 -7.01147 z"
       id="path4410"
       inkscape:connector-curvature="0" />
    <path
       style="fill:#808000;stroke:#000000;stroke-width:0.49761969;stroke-opacity:1"
       d="m 145.93236,183.96416 v -15.43363 h 7.01146 7.01145 v 15.43363 15.43363 h -7.01145 -7.01146 z"
       id="path4412"
       inkscape:connector-curvature="0" />
    <path
       style="fill:#808000;stroke:#000000;stroke-width:0.49761969;stroke-opacity:1"
       d="m 145.93236,217.51552 v -14.76258 h 7.01146 7.01145 v 14.76258 14.7626 h -7.01145 -7.01146 z"
       id="path4414"
       inkscape:connector-curvature="0" />
    <path
       style="fill:#808000;stroke:#000000;stroke-width:0.49761969;stroke-opacity:1"
       d="m 130.0643,217.51552 v -14.76258 h 7.01147 7.01146 v 14.76258 14.7626 h -7.01146 -7.01147 z"
       id="path4416"
       inkscape:connector-curvature="0" />
    <path
       style="fill:#808000;stroke:#000000;stroke-width:0.49761969;stroke-opacity:1"
       d="m 114.19625,217.51552 v -14.76258 h 7.01147 7.01146 v 14.76258 14.7626 h -7.01146 -7.01147 z"
       id="path4418"
       inkscape:connector-curvature="0" />
    <path
       style="fill:#808000;stroke:#000000;stroke-width:0.49761969;stroke-opacity:1"
       d="m 114.56528,183.96416 v -15.43363 h 6.82695 6.82695 v 15.43363 15.43363 h -6.82695 -6.82695 z"
       id="path4420"
       inkscape:connector-curvature="0" />
    <path
       style="fill:#808000;stroke:#000000;stroke-width:0.49761969;stroke-opacity:1"
       d="m 114.28207,148.56748 0.0987,-16.60792 6.91921,-0.18257 6.9192,-0.18257 v 16.79049 16.79049 h -7.01791 -7.0179 z"
       id="path4422"
       inkscape:connector-curvature="0" />
    <path
       style="fill:#808000;stroke:#000000;stroke-width:0.49761969;stroke-opacity:1"
       d="m 98.697224,148.39972 v -16.77567 h 6.826966 6.82695 v 16.77567 16.77568 h -6.82695 -6.826966 z"
       id="path4424"
       inkscape:connector-curvature="0" />
    <path
       style="fill:#808000;stroke:#000000;stroke-width:0.49761969;stroke-opacity:1"
       d="m 98.697224,184.29967 v -15.76914 h 6.826966 6.82695 v 15.76914 15.76914 h -6.82695 -6.826966 z"
       id="path4426"
       inkscape:connector-curvature="0" />
    <path
       style="fill:#808000;stroke:#000000;stroke-width:0.49761969;stroke-opacity:1"
       d="m 82.460164,148.39972 v -16.77567 h 7.195974 7.195977 v 16.77567 16.77568 h -7.195977 -7.195974 z"
       id="path4430"
       inkscape:connector-curvature="0" />
    <path
       style="fill:#808000;stroke:#000000;stroke-width:0.49761969;stroke-opacity:1"
       d="m 82.460164,217.85104 v -14.4271 h 7.195974 7.195977 v 14.4271 14.42708 h -7.195977 -7.195974 z"
       id="path4432"
       inkscape:connector-curvature="0" />
    <path
       style="fill:#808000;stroke:#000000;stroke-width:0.49761969;stroke-opacity:1"
       d="m 66.961142,184.29967 v -15.76914 h 6.826956 6.826948 v 15.76914 15.76914 h -6.826948 -6.826956 z"
       id="path4434"
       inkscape:connector-curvature="0" />
    <path
       style="fill:#808000;stroke:#000000;stroke-width:0.49761969;stroke-opacity:1"
       d="m 66.961142,148.39972 v -16.77567 h 6.826956 6.826948 v 16.77567 16.77568 h -6.826948 -6.826956 z"
       id="path4436"
       inkscape:connector-curvature="0" />
    <path
       style="fill:#808000;stroke:#000000;stroke-width:0.49761969;stroke-opacity:1"
       d="m 82.460164,184.29967 v -15.76914 h 7.011461 7.011463 v 15.76914 15.76914 h -7.011463 -7.011461 z"
       id="path4438"
       inkscape:connector-curvature="0" />
    <path
       style="fill:#808000;stroke:#000000;stroke-width:0.49761969;stroke-opacity:1"
       d="m 65.275169,184.29967 c 1.82e-4,-8.85754 0.05277,-12.3883 0.116685,-7.84609 0.06396,4.54221 0.06376,11.78931 -3.58e-4,16.10467 -0.06416,4.31535 -0.116489,0.59899 -0.116249,-8.25858 z"
       id="path4440"
       inkscape:connector-curvature="0" />
    <path
       style="fill:#808000;stroke:#000000;stroke-width:0.49761969;stroke-opacity:1"
       d="m 51.83115,217.85104 v -14.4271 h 6.642436 6.642441 v 14.4271 14.42708 H 58.473586 51.83115 Z"
       id="path4442"
       inkscape:connector-curvature="0" />
    <path
       style="fill:#808000;stroke:#000000;stroke-width:0.49761969;stroke-opacity:1"
       d="m 51.83115,184.29967 v -15.76914 h 6.642436 6.642441 v 15.76914 15.76914 H 58.473586 51.83115 Z"
       id="path4444"
       inkscape:connector-curvature="0" />
    <path
       style="fill:#808000;stroke:#000000;stroke-width:0.49761969;stroke-opacity:1"
       d="m 66.961142,217.85104 v -14.4271 h 6.826956 6.826948 v 14.4271 14.42708 h -6.826948 -6.826956 z"
       id="path4446"
       inkscape:connector-curvature="0" />
    <path
       style="fill:#808000;stroke:#000000;stroke-width:0.49761969;stroke-opacity:1"
       d="m 66.961142,249.72484 v -14.09158 h 6.826956 6.826948 v 14.09158 14.09158 h -6.826948 -6.826956 z"
       id="path4448"
       inkscape:connector-curvature="0" />
    <path
       style="fill:#808000;stroke:#000000;stroke-width:0.49761969;stroke-opacity:1"
       d="m 82.460164,249.72484 v -14.09158 h 7.195974 7.195977 v 14.09158 14.09158 h -7.195977 -7.195974 z"
       id="path4450"
       inkscape:connector-curvature="0" />
    <path
       style="fill:#808000;stroke:#000000;stroke-width:0.49761969;stroke-opacity:1"
       d="m 98.697224,249.72484 v -14.09158 h 6.826966 6.82695 v 14.09158 14.09158 h -6.82695 -6.826966 z"
       id="path4452"
       inkscape:connector-curvature="0" />
    <path
       style="fill:#808000;stroke:#000000;stroke-width:0.49761969;stroke-opacity:1"
       d="m 98.697224,217.85104 v -14.4271 h 6.826966 6.82695 v 14.4271 14.42708 h -6.82695 -6.826966 z"
       id="path4454"
       inkscape:connector-curvature="0" />
    <path
       style="fill:#808000;stroke:#000000;stroke-width:0.49761969;stroke-opacity:1"
       d="m 98.697224,280.5921 v -13.42054 h 7.011476 7.01146 v 13.42054 13.42054 h -7.01146 -7.011476 z"
       id="path4456"
       inkscape:connector-curvature="0" />
    <path
       style="fill:#808000;stroke:#000000;stroke-width:0.49761969;stroke-opacity:1"
       d="m 114.19625,249.72484 v -14.09158 h 7.01147 7.01146 v 14.09158 14.09158 h -7.01146 -7.01147 z"
       id="path4458"
       inkscape:connector-curvature="0" />
    <path
       style="fill:#808000;stroke:#000000;stroke-width:0.49761969;stroke-opacity:1"
       d="m 130.0643,249.72484 v -14.09158 h 7.01147 7.01146 v 14.09158 14.09158 h -7.01146 -7.01147 z"
       id="path4460"
       inkscape:connector-curvature="0" />
  </g>
</svg>
